G75*
%MOIN*%
%OFA0B0*%
%FSLAX25Y25*%
%IPPOS*%
%LPD*%
%AMOC8*
5,1,8,0,0,1.08239X$1,22.5*
%
%ADD10R,0.03937X0.04331*%
%ADD11R,0.07087X0.04724*%
%ADD12R,0.04724X0.05512*%
%ADD13R,0.04331X0.03937*%
%ADD14R,0.04724X0.04724*%
%ADD15C,0.02500*%
%ADD16C,0.01600*%
%ADD17C,0.04000*%
D10*
X0035922Y0045272D03*
X0035922Y0051964D03*
X0054603Y0051964D03*
X0054603Y0045272D03*
D11*
X0044524Y0032575D03*
D12*
X0040194Y0022338D03*
X0048855Y0022338D03*
D13*
X0048855Y0070035D03*
X0042162Y0070035D03*
D14*
X0044294Y0095506D03*
X0054137Y0095506D03*
X0034452Y0095506D03*
D15*
X0034772Y0095114D01*
X0044123Y0096590D02*
X0044294Y0095506D01*
X0053965Y0095114D02*
X0054137Y0095506D01*
X0049044Y0070508D02*
X0048855Y0070035D01*
X0049536Y0069031D01*
X0054457Y0052299D02*
X0054603Y0051964D01*
X0054603Y0045272D02*
X0054457Y0044917D01*
X0044615Y0032614D02*
X0044524Y0032575D01*
X0040186Y0022772D02*
X0040194Y0022338D01*
X0048855Y0022338D02*
X0049044Y0022772D01*
X0036249Y0044917D02*
X0035922Y0045272D01*
X0035922Y0051964D02*
X0034772Y0052299D01*
X0035922Y0051964D02*
X0036249Y0052299D01*
D16*
X0031565Y0049715D02*
X0028754Y0052526D01*
X0028754Y0093411D01*
X0033523Y0098180D01*
X0036514Y0098180D01*
X0038632Y0096062D01*
X0038632Y0092487D01*
X0038994Y0091613D01*
X0038994Y0083209D01*
X0037661Y0081876D01*
X0036854Y0079928D01*
X0036854Y0073040D01*
X0036697Y0072660D01*
X0036697Y0067410D01*
X0037199Y0066198D01*
X0038128Y0065269D01*
X0039340Y0064767D01*
X0041032Y0064767D01*
X0041108Y0064735D01*
X0043216Y0064735D01*
X0043292Y0064767D01*
X0044984Y0064767D01*
X0045509Y0064984D01*
X0046033Y0064767D01*
X0046305Y0064767D01*
X0059000Y0052072D01*
X0059000Y0049675D01*
X0058441Y0050234D01*
X0057228Y0050737D01*
X0051978Y0050737D01*
X0050765Y0050234D01*
X0049837Y0049306D01*
X0049335Y0048093D01*
X0049335Y0046402D01*
X0049303Y0046326D01*
X0049303Y0030526D01*
X0047172Y0028394D01*
X0045836Y0028394D01*
X0044624Y0027892D01*
X0044524Y0027793D01*
X0044425Y0027892D01*
X0043212Y0028394D01*
X0042058Y0028394D01*
X0041222Y0029231D01*
X0041222Y0046326D01*
X0041191Y0046402D01*
X0041191Y0048093D01*
X0040688Y0049306D01*
X0039760Y0050234D01*
X0038547Y0050737D01*
X0033297Y0050737D01*
X0032084Y0050234D01*
X0031565Y0049715D01*
X0031911Y0050061D02*
X0031218Y0050061D01*
X0029620Y0051660D02*
X0059000Y0051660D01*
X0057814Y0053258D02*
X0028754Y0053258D01*
X0028754Y0054857D02*
X0056216Y0054857D01*
X0054617Y0056455D02*
X0028754Y0056455D01*
X0028754Y0058054D02*
X0053019Y0058054D01*
X0051420Y0059652D02*
X0028754Y0059652D01*
X0028754Y0061251D02*
X0049822Y0061251D01*
X0048223Y0062849D02*
X0028754Y0062849D01*
X0028754Y0064448D02*
X0046624Y0064448D01*
X0037350Y0066046D02*
X0028754Y0066046D01*
X0028754Y0067645D02*
X0036697Y0067645D01*
X0036697Y0069243D02*
X0028754Y0069243D01*
X0028754Y0070842D02*
X0036697Y0070842D01*
X0036697Y0072440D02*
X0028754Y0072440D01*
X0028754Y0074039D02*
X0036854Y0074039D01*
X0036854Y0075637D02*
X0028754Y0075637D01*
X0028754Y0077236D02*
X0036854Y0077236D01*
X0036854Y0078834D02*
X0028754Y0078834D01*
X0028754Y0080433D02*
X0037063Y0080433D01*
X0037817Y0082031D02*
X0028754Y0082031D01*
X0028754Y0083630D02*
X0038994Y0083630D01*
X0038994Y0085228D02*
X0028754Y0085228D01*
X0028754Y0086827D02*
X0038994Y0086827D01*
X0038994Y0088425D02*
X0028754Y0088425D01*
X0028754Y0090024D02*
X0038994Y0090024D01*
X0038990Y0091622D02*
X0028754Y0091622D01*
X0028754Y0093221D02*
X0038632Y0093221D01*
X0038632Y0094820D02*
X0030162Y0094820D01*
X0031761Y0096418D02*
X0038276Y0096418D01*
X0036678Y0098017D02*
X0033359Y0098017D01*
X0039933Y0050061D02*
X0050592Y0050061D01*
X0049488Y0048463D02*
X0041038Y0048463D01*
X0041191Y0046864D02*
X0049335Y0046864D01*
X0049303Y0045266D02*
X0041222Y0045266D01*
X0041222Y0043667D02*
X0049303Y0043667D01*
X0049303Y0042069D02*
X0041222Y0042069D01*
X0041222Y0040470D02*
X0049303Y0040470D01*
X0049303Y0038872D02*
X0041222Y0038872D01*
X0041222Y0037273D02*
X0049303Y0037273D01*
X0049303Y0035675D02*
X0041222Y0035675D01*
X0041222Y0034076D02*
X0049303Y0034076D01*
X0049303Y0032478D02*
X0041222Y0032478D01*
X0041222Y0030879D02*
X0049303Y0030879D01*
X0048058Y0029281D02*
X0041222Y0029281D01*
X0058614Y0050061D02*
X0059000Y0050061D01*
D17*
X0054603Y0051964D02*
X0047725Y0051964D01*
X0044615Y0048854D01*
X0041505Y0051964D01*
X0035922Y0051964D01*
X0034772Y0052299D02*
X0034772Y0095185D01*
X0034452Y0095506D01*
X0031328Y0103480D02*
X0038709Y0103480D01*
X0044294Y0097896D01*
X0044294Y0095506D01*
X0044294Y0081014D01*
X0042154Y0078874D01*
X0042154Y0070043D01*
X0042162Y0070035D01*
X0049044Y0070508D02*
X0054137Y0075600D01*
X0054137Y0095506D01*
X0049536Y0069031D02*
X0064300Y0054268D01*
X0064300Y0046886D01*
X0056426Y0039012D01*
X0054603Y0039012D01*
X0054603Y0045272D01*
X0054603Y0039012D02*
X0054603Y0028331D01*
X0049044Y0022772D01*
X0044615Y0032614D02*
X0044615Y0048854D01*
X0035922Y0045272D02*
X0035922Y0037862D01*
X0023454Y0050331D01*
X0023454Y0095606D01*
X0031328Y0103480D01*
X0035922Y0037862D02*
X0035922Y0027035D01*
X0040186Y0022772D01*
M02*
