G75*
%MOIN*%
%OFA0B0*%
%FSLAX25Y25*%
%IPPOS*%
%LPD*%
%AMOC8*
5,1,8,0,0,1.08239X$1,22.5*
%
%ADD10R,0.03937X0.04331*%
%ADD11R,0.07087X0.04724*%
%ADD12R,0.04724X0.05512*%
%ADD13R,0.04331X0.03937*%
%ADD14R,0.04724X0.04724*%
%ADD15C,0.00100*%
%ADD16C,0.02500*%
%ADD17C,0.01600*%
%ADD18C,0.04000*%
D10*
X0023619Y0045272D03*
X0023619Y0051964D03*
X0042300Y0051964D03*
X0042300Y0045272D03*
X0080706Y0045272D03*
X0080706Y0051964D03*
X0099387Y0051964D03*
X0099387Y0045272D03*
X0137792Y0045272D03*
X0137792Y0051964D03*
X0156473Y0051964D03*
X0156473Y0045272D03*
X0194879Y0045272D03*
X0194879Y0051964D03*
X0213560Y0051964D03*
X0213560Y0045272D03*
D11*
X0203481Y0032575D03*
X0146394Y0032575D03*
X0089308Y0032575D03*
X0032221Y0032575D03*
D12*
X0027891Y0022338D03*
X0036552Y0022338D03*
X0084977Y0022338D03*
X0093639Y0022338D03*
X0142064Y0022338D03*
X0150725Y0022338D03*
X0199150Y0022338D03*
X0207812Y0022338D03*
D13*
X0207812Y0070035D03*
X0201119Y0070035D03*
X0150725Y0070035D03*
X0144032Y0070035D03*
X0093639Y0070035D03*
X0086946Y0070035D03*
X0036552Y0070035D03*
X0029859Y0070035D03*
D14*
X0031991Y0095506D03*
X0022148Y0095506D03*
X0041833Y0095506D03*
X0079235Y0095506D03*
X0089078Y0095506D03*
X0098920Y0095506D03*
X0136322Y0095506D03*
X0146164Y0095506D03*
X0156007Y0095506D03*
X0193408Y0095506D03*
X0203251Y0095506D03*
X0213093Y0095506D03*
D15*
X0213093Y0099506D01*
X0217093Y0095506D01*
X0213093Y0091506D01*
X0209093Y0095506D01*
X0213093Y0099506D01*
X0203251Y0099506D02*
X0203251Y0095506D01*
X0203251Y0099506D02*
X0207251Y0095506D01*
X0203251Y0091506D01*
X0199251Y0095506D01*
X0203251Y0099506D01*
X0193408Y0099506D02*
X0193408Y0095506D01*
X0193408Y0099506D02*
X0197408Y0095506D01*
X0193408Y0091506D01*
X0189408Y0095506D01*
X0193408Y0099506D01*
X0156007Y0099506D02*
X0156007Y0095506D01*
X0156007Y0099506D02*
X0160007Y0095506D01*
X0156007Y0091506D01*
X0152007Y0095506D01*
X0156007Y0099506D01*
X0146164Y0099506D02*
X0146164Y0095506D01*
X0146164Y0099506D02*
X0150164Y0095506D01*
X0146164Y0091506D01*
X0142164Y0095506D01*
X0146164Y0099506D01*
X0136322Y0099506D02*
X0136322Y0095506D01*
X0136322Y0099506D02*
X0140322Y0095506D01*
X0136322Y0091506D01*
X0132322Y0095506D01*
X0136322Y0099506D01*
X0098920Y0099506D02*
X0098920Y0095506D01*
X0098920Y0099506D02*
X0102920Y0095506D01*
X0098920Y0091506D01*
X0094920Y0095506D01*
X0098920Y0099506D01*
X0089078Y0099506D02*
X0089078Y0095506D01*
X0089078Y0099506D02*
X0093078Y0095506D01*
X0089078Y0091506D01*
X0085078Y0095506D01*
X0089078Y0099506D01*
X0079235Y0099506D02*
X0079235Y0095506D01*
X0079235Y0099506D02*
X0083235Y0095506D01*
X0079235Y0091506D01*
X0075235Y0095506D01*
X0079235Y0099506D01*
X0041833Y0099506D02*
X0041833Y0095506D01*
X0041833Y0099506D02*
X0045833Y0095506D01*
X0041833Y0091506D01*
X0037833Y0095506D01*
X0041833Y0099506D01*
X0031991Y0099506D02*
X0031991Y0095506D01*
X0031991Y0099506D02*
X0035991Y0095506D01*
X0031991Y0091506D01*
X0027991Y0095506D01*
X0031991Y0099506D01*
X0022148Y0099506D02*
X0022148Y0095506D01*
X0022148Y0099506D02*
X0026148Y0095506D01*
X0022148Y0091506D01*
X0018148Y0095506D01*
X0022148Y0099506D01*
D16*
X0022148Y0095506D02*
X0022469Y0095114D01*
X0031820Y0096590D02*
X0031991Y0095506D01*
X0041662Y0095114D02*
X0041833Y0095506D01*
X0079235Y0095506D02*
X0079556Y0095114D01*
X0088906Y0096590D02*
X0089078Y0095506D01*
X0098749Y0095114D02*
X0098920Y0095506D01*
X0136322Y0095506D02*
X0136643Y0095114D01*
X0145993Y0096590D02*
X0146164Y0095506D01*
X0155835Y0095114D02*
X0156007Y0095506D01*
X0193408Y0095506D02*
X0193729Y0095114D01*
X0203080Y0096590D02*
X0203251Y0095506D01*
X0212922Y0095114D02*
X0213093Y0095506D01*
X0208001Y0070508D02*
X0207812Y0070035D01*
X0208493Y0069031D01*
X0213414Y0052299D02*
X0213560Y0051964D01*
X0213560Y0045272D02*
X0213414Y0044917D01*
X0195206Y0044917D02*
X0194879Y0045272D01*
X0194879Y0051964D02*
X0193729Y0052299D01*
X0194879Y0051964D02*
X0195206Y0052299D01*
X0203572Y0032614D02*
X0203481Y0032575D01*
X0199143Y0022772D02*
X0199150Y0022338D01*
X0207812Y0022338D02*
X0208001Y0022772D01*
X0156328Y0044917D02*
X0156473Y0045272D01*
X0156473Y0051964D02*
X0156328Y0052299D01*
X0138119Y0052299D02*
X0137792Y0051964D01*
X0136643Y0052299D01*
X0137792Y0045272D02*
X0138119Y0044917D01*
X0146394Y0032575D02*
X0146485Y0032614D01*
X0142056Y0022772D02*
X0142064Y0022338D01*
X0150725Y0022338D02*
X0150914Y0022772D01*
X0099241Y0044917D02*
X0099387Y0045272D01*
X0099387Y0051964D02*
X0099241Y0052299D01*
X0081032Y0052299D02*
X0080706Y0051964D01*
X0079556Y0052299D01*
X0080706Y0045272D02*
X0081032Y0044917D01*
X0089308Y0032575D02*
X0089398Y0032614D01*
X0084969Y0022772D02*
X0084977Y0022338D01*
X0093639Y0022338D02*
X0093828Y0022772D01*
X0042154Y0044917D02*
X0042300Y0045272D01*
X0042300Y0051964D02*
X0042154Y0052299D01*
X0023946Y0052299D02*
X0023619Y0051964D01*
X0022469Y0052299D01*
X0023619Y0045272D02*
X0023946Y0044917D01*
X0032221Y0032575D02*
X0032312Y0032614D01*
X0036741Y0022772D02*
X0036552Y0022338D01*
X0027891Y0022338D02*
X0027883Y0022772D01*
X0037233Y0069031D02*
X0036552Y0070035D01*
X0036741Y0070508D01*
X0093639Y0070035D02*
X0094320Y0069031D01*
X0093639Y0070035D02*
X0093828Y0070508D01*
X0150725Y0070035D02*
X0151406Y0069031D01*
X0150725Y0070035D02*
X0150914Y0070508D01*
D17*
X0147903Y0064767D02*
X0147379Y0064984D01*
X0146854Y0064767D01*
X0145163Y0064767D01*
X0145087Y0064735D01*
X0142978Y0064735D01*
X0142902Y0064767D01*
X0141211Y0064767D01*
X0139998Y0065269D01*
X0139069Y0066198D01*
X0138567Y0067410D01*
X0138567Y0072660D01*
X0138724Y0073040D01*
X0138724Y0079928D01*
X0139531Y0081876D01*
X0140864Y0083209D01*
X0140864Y0091613D01*
X0140502Y0092487D01*
X0140502Y0096062D01*
X0138384Y0098180D01*
X0135393Y0098180D01*
X0130624Y0093411D01*
X0130624Y0052526D01*
X0133435Y0049715D01*
X0133954Y0050234D01*
X0135167Y0050737D01*
X0140417Y0050737D01*
X0141630Y0050234D01*
X0142558Y0049306D01*
X0143061Y0048093D01*
X0143061Y0046402D01*
X0143092Y0046326D01*
X0143092Y0029231D01*
X0143928Y0028394D01*
X0145082Y0028394D01*
X0146295Y0027892D01*
X0146394Y0027793D01*
X0146494Y0027892D01*
X0147707Y0028394D01*
X0149042Y0028394D01*
X0151173Y0030526D01*
X0151173Y0046326D01*
X0151205Y0046402D01*
X0151205Y0048093D01*
X0151707Y0049306D01*
X0152635Y0050234D01*
X0153848Y0050737D01*
X0159098Y0050737D01*
X0160311Y0050234D01*
X0160870Y0049675D01*
X0160870Y0052072D01*
X0148176Y0064767D01*
X0147903Y0064767D01*
X0148495Y0064448D02*
X0130624Y0064448D01*
X0130624Y0066046D02*
X0139221Y0066046D01*
X0138567Y0067645D02*
X0130624Y0067645D01*
X0130624Y0069243D02*
X0138567Y0069243D01*
X0138567Y0070842D02*
X0130624Y0070842D01*
X0130624Y0072440D02*
X0138567Y0072440D01*
X0138724Y0074039D02*
X0130624Y0074039D01*
X0130624Y0075637D02*
X0138724Y0075637D01*
X0138724Y0077236D02*
X0130624Y0077236D01*
X0130624Y0078834D02*
X0138724Y0078834D01*
X0138933Y0080433D02*
X0130624Y0080433D01*
X0130624Y0082031D02*
X0139687Y0082031D01*
X0140864Y0083630D02*
X0130624Y0083630D01*
X0130624Y0085228D02*
X0140864Y0085228D01*
X0140864Y0086827D02*
X0130624Y0086827D01*
X0130624Y0088425D02*
X0140864Y0088425D01*
X0140864Y0090024D02*
X0130624Y0090024D01*
X0130624Y0091622D02*
X0140860Y0091622D01*
X0140502Y0093221D02*
X0130624Y0093221D01*
X0132032Y0094820D02*
X0140502Y0094820D01*
X0140146Y0096418D02*
X0133631Y0096418D01*
X0135229Y0098017D02*
X0138548Y0098017D01*
X0187710Y0093411D02*
X0192480Y0098180D01*
X0195471Y0098180D01*
X0197589Y0096062D01*
X0197589Y0092487D01*
X0197951Y0091613D01*
X0197951Y0083209D01*
X0196618Y0081876D01*
X0195811Y0079928D01*
X0195811Y0073040D01*
X0195654Y0072660D01*
X0195654Y0067410D01*
X0196156Y0066198D01*
X0197084Y0065269D01*
X0198297Y0064767D01*
X0199989Y0064767D01*
X0200065Y0064735D01*
X0202173Y0064735D01*
X0202249Y0064767D01*
X0203941Y0064767D01*
X0204465Y0064984D01*
X0204990Y0064767D01*
X0205262Y0064767D01*
X0217957Y0052072D01*
X0217957Y0049675D01*
X0217398Y0050234D01*
X0216185Y0050737D01*
X0210935Y0050737D01*
X0209722Y0050234D01*
X0208794Y0049306D01*
X0208291Y0048093D01*
X0208291Y0046402D01*
X0208260Y0046326D01*
X0208260Y0030526D01*
X0206128Y0028394D01*
X0204793Y0028394D01*
X0203580Y0027892D01*
X0203481Y0027793D01*
X0203382Y0027892D01*
X0202169Y0028394D01*
X0201015Y0028394D01*
X0200179Y0029231D01*
X0200179Y0046326D01*
X0200147Y0046402D01*
X0200147Y0048093D01*
X0199645Y0049306D01*
X0198717Y0050234D01*
X0197504Y0050737D01*
X0192254Y0050737D01*
X0191041Y0050234D01*
X0190521Y0049715D01*
X0187710Y0052526D01*
X0187710Y0093411D01*
X0187710Y0093221D02*
X0197589Y0093221D01*
X0197947Y0091622D02*
X0187710Y0091622D01*
X0187710Y0090024D02*
X0197951Y0090024D01*
X0197951Y0088425D02*
X0187710Y0088425D01*
X0187710Y0086827D02*
X0197951Y0086827D01*
X0197951Y0085228D02*
X0187710Y0085228D01*
X0187710Y0083630D02*
X0197951Y0083630D01*
X0196773Y0082031D02*
X0187710Y0082031D01*
X0187710Y0080433D02*
X0196020Y0080433D01*
X0195811Y0078834D02*
X0187710Y0078834D01*
X0187710Y0077236D02*
X0195811Y0077236D01*
X0195811Y0075637D02*
X0187710Y0075637D01*
X0187710Y0074039D02*
X0195811Y0074039D01*
X0195654Y0072440D02*
X0187710Y0072440D01*
X0187710Y0070842D02*
X0195654Y0070842D01*
X0195654Y0069243D02*
X0187710Y0069243D01*
X0187710Y0067645D02*
X0195654Y0067645D01*
X0196307Y0066046D02*
X0187710Y0066046D01*
X0187710Y0064448D02*
X0205581Y0064448D01*
X0207180Y0062849D02*
X0187710Y0062849D01*
X0187710Y0061251D02*
X0208778Y0061251D01*
X0210377Y0059652D02*
X0187710Y0059652D01*
X0187710Y0058054D02*
X0211975Y0058054D01*
X0213574Y0056455D02*
X0187710Y0056455D01*
X0187710Y0054857D02*
X0215172Y0054857D01*
X0216771Y0053258D02*
X0187710Y0053258D01*
X0188576Y0051660D02*
X0217957Y0051660D01*
X0217957Y0050061D02*
X0217571Y0050061D01*
X0209549Y0050061D02*
X0198890Y0050061D01*
X0199994Y0048463D02*
X0208444Y0048463D01*
X0208291Y0046864D02*
X0200147Y0046864D01*
X0200179Y0045266D02*
X0208260Y0045266D01*
X0208260Y0043667D02*
X0200179Y0043667D01*
X0200179Y0042069D02*
X0208260Y0042069D01*
X0208260Y0040470D02*
X0200179Y0040470D01*
X0200179Y0038872D02*
X0208260Y0038872D01*
X0208260Y0037273D02*
X0200179Y0037273D01*
X0200179Y0035675D02*
X0208260Y0035675D01*
X0208260Y0034076D02*
X0200179Y0034076D01*
X0200179Y0032478D02*
X0208260Y0032478D01*
X0208260Y0030879D02*
X0200179Y0030879D01*
X0200179Y0029281D02*
X0207014Y0029281D01*
X0190868Y0050061D02*
X0190175Y0050061D01*
X0160870Y0050061D02*
X0160484Y0050061D01*
X0160870Y0051660D02*
X0131490Y0051660D01*
X0130624Y0053258D02*
X0159684Y0053258D01*
X0158086Y0054857D02*
X0130624Y0054857D01*
X0130624Y0056455D02*
X0156487Y0056455D01*
X0154889Y0058054D02*
X0130624Y0058054D01*
X0130624Y0059652D02*
X0153290Y0059652D01*
X0151692Y0061251D02*
X0130624Y0061251D01*
X0130624Y0062849D02*
X0150093Y0062849D01*
X0152462Y0050061D02*
X0141803Y0050061D01*
X0142908Y0048463D02*
X0151358Y0048463D01*
X0151205Y0046864D02*
X0143061Y0046864D01*
X0143092Y0045266D02*
X0151173Y0045266D01*
X0151173Y0043667D02*
X0143092Y0043667D01*
X0143092Y0042069D02*
X0151173Y0042069D01*
X0151173Y0040470D02*
X0143092Y0040470D01*
X0143092Y0038872D02*
X0151173Y0038872D01*
X0151173Y0037273D02*
X0143092Y0037273D01*
X0143092Y0035675D02*
X0151173Y0035675D01*
X0151173Y0034076D02*
X0143092Y0034076D01*
X0143092Y0032478D02*
X0151173Y0032478D01*
X0151173Y0030879D02*
X0143092Y0030879D01*
X0143092Y0029281D02*
X0149928Y0029281D01*
X0133781Y0050061D02*
X0133088Y0050061D01*
X0103783Y0050061D02*
X0103398Y0050061D01*
X0103224Y0050234D02*
X0103783Y0049675D01*
X0103783Y0052072D01*
X0091089Y0064767D01*
X0090817Y0064767D01*
X0090292Y0064984D01*
X0089767Y0064767D01*
X0088076Y0064767D01*
X0088000Y0064735D01*
X0085891Y0064735D01*
X0085815Y0064767D01*
X0084124Y0064767D01*
X0082911Y0065269D01*
X0081983Y0066198D01*
X0081480Y0067410D01*
X0081480Y0072660D01*
X0081638Y0073040D01*
X0081638Y0079928D01*
X0082445Y0081876D01*
X0083778Y0083209D01*
X0083778Y0091613D01*
X0083415Y0092487D01*
X0083415Y0096062D01*
X0081298Y0098180D01*
X0078306Y0098180D01*
X0073537Y0093411D01*
X0073537Y0052526D01*
X0076348Y0049715D01*
X0076868Y0050234D01*
X0078081Y0050737D01*
X0083330Y0050737D01*
X0084543Y0050234D01*
X0085472Y0049306D01*
X0085974Y0048093D01*
X0085974Y0046402D01*
X0086005Y0046326D01*
X0086005Y0029231D01*
X0086842Y0028394D01*
X0087996Y0028394D01*
X0089209Y0027892D01*
X0089308Y0027793D01*
X0089407Y0027892D01*
X0090620Y0028394D01*
X0091955Y0028394D01*
X0094087Y0030526D01*
X0094087Y0046326D01*
X0094118Y0046402D01*
X0094118Y0048093D01*
X0094621Y0049306D01*
X0095549Y0050234D01*
X0096762Y0050737D01*
X0102012Y0050737D01*
X0103224Y0050234D01*
X0103783Y0051660D02*
X0074403Y0051660D01*
X0073537Y0053258D02*
X0102598Y0053258D01*
X0100999Y0054857D02*
X0073537Y0054857D01*
X0073537Y0056455D02*
X0099401Y0056455D01*
X0097802Y0058054D02*
X0073537Y0058054D01*
X0073537Y0059652D02*
X0096203Y0059652D01*
X0094605Y0061251D02*
X0073537Y0061251D01*
X0073537Y0062849D02*
X0093006Y0062849D01*
X0091408Y0064448D02*
X0073537Y0064448D01*
X0073537Y0066046D02*
X0082134Y0066046D01*
X0081480Y0067645D02*
X0073537Y0067645D01*
X0073537Y0069243D02*
X0081480Y0069243D01*
X0081480Y0070842D02*
X0073537Y0070842D01*
X0073537Y0072440D02*
X0081480Y0072440D01*
X0081638Y0074039D02*
X0073537Y0074039D01*
X0073537Y0075637D02*
X0081638Y0075637D01*
X0081638Y0077236D02*
X0073537Y0077236D01*
X0073537Y0078834D02*
X0081638Y0078834D01*
X0081847Y0080433D02*
X0073537Y0080433D01*
X0073537Y0082031D02*
X0082600Y0082031D01*
X0083778Y0083630D02*
X0073537Y0083630D01*
X0073537Y0085228D02*
X0083778Y0085228D01*
X0083778Y0086827D02*
X0073537Y0086827D01*
X0073537Y0088425D02*
X0083778Y0088425D01*
X0083778Y0090024D02*
X0073537Y0090024D01*
X0073537Y0091622D02*
X0083774Y0091622D01*
X0083415Y0093221D02*
X0073537Y0093221D01*
X0074946Y0094820D02*
X0083415Y0094820D01*
X0083060Y0096418D02*
X0076544Y0096418D01*
X0078143Y0098017D02*
X0081461Y0098017D01*
X0026691Y0091613D02*
X0026691Y0083209D01*
X0025358Y0081876D01*
X0024551Y0079928D01*
X0024551Y0073040D01*
X0024394Y0072660D01*
X0024394Y0067410D01*
X0024896Y0066198D01*
X0025824Y0065269D01*
X0027037Y0064767D01*
X0028729Y0064767D01*
X0028805Y0064735D01*
X0030913Y0064735D01*
X0030989Y0064767D01*
X0032681Y0064767D01*
X0033206Y0064984D01*
X0033730Y0064767D01*
X0034002Y0064767D01*
X0046697Y0052072D01*
X0046697Y0049675D01*
X0046138Y0050234D01*
X0044925Y0050737D01*
X0039675Y0050737D01*
X0038462Y0050234D01*
X0037534Y0049306D01*
X0037031Y0048093D01*
X0037031Y0046402D01*
X0037000Y0046326D01*
X0037000Y0030526D01*
X0034868Y0028394D01*
X0033533Y0028394D01*
X0032320Y0027892D01*
X0032221Y0027793D01*
X0032122Y0027892D01*
X0030909Y0028394D01*
X0029755Y0028394D01*
X0028919Y0029231D01*
X0028919Y0046326D01*
X0028887Y0046402D01*
X0028887Y0048093D01*
X0028385Y0049306D01*
X0027457Y0050234D01*
X0026244Y0050737D01*
X0020994Y0050737D01*
X0019781Y0050234D01*
X0019261Y0049715D01*
X0016450Y0052526D01*
X0016450Y0093411D01*
X0021220Y0098180D01*
X0024211Y0098180D01*
X0026329Y0096062D01*
X0026329Y0092487D01*
X0026691Y0091613D01*
X0026687Y0091622D02*
X0016450Y0091622D01*
X0016450Y0090024D02*
X0026691Y0090024D01*
X0026691Y0088425D02*
X0016450Y0088425D01*
X0016450Y0086827D02*
X0026691Y0086827D01*
X0026691Y0085228D02*
X0016450Y0085228D01*
X0016450Y0083630D02*
X0026691Y0083630D01*
X0025513Y0082031D02*
X0016450Y0082031D01*
X0016450Y0080433D02*
X0024760Y0080433D01*
X0024551Y0078834D02*
X0016450Y0078834D01*
X0016450Y0077236D02*
X0024551Y0077236D01*
X0024551Y0075637D02*
X0016450Y0075637D01*
X0016450Y0074039D02*
X0024551Y0074039D01*
X0024394Y0072440D02*
X0016450Y0072440D01*
X0016450Y0070842D02*
X0024394Y0070842D01*
X0024394Y0069243D02*
X0016450Y0069243D01*
X0016450Y0067645D02*
X0024394Y0067645D01*
X0025047Y0066046D02*
X0016450Y0066046D01*
X0016450Y0064448D02*
X0034321Y0064448D01*
X0035920Y0062849D02*
X0016450Y0062849D01*
X0016450Y0061251D02*
X0037518Y0061251D01*
X0039117Y0059652D02*
X0016450Y0059652D01*
X0016450Y0058054D02*
X0040715Y0058054D01*
X0042314Y0056455D02*
X0016450Y0056455D01*
X0016450Y0054857D02*
X0043912Y0054857D01*
X0045511Y0053258D02*
X0016450Y0053258D01*
X0017317Y0051660D02*
X0046697Y0051660D01*
X0046697Y0050061D02*
X0046311Y0050061D01*
X0038289Y0050061D02*
X0027630Y0050061D01*
X0028734Y0048463D02*
X0037184Y0048463D01*
X0037031Y0046864D02*
X0028887Y0046864D01*
X0028919Y0045266D02*
X0037000Y0045266D01*
X0037000Y0043667D02*
X0028919Y0043667D01*
X0028919Y0042069D02*
X0037000Y0042069D01*
X0037000Y0040470D02*
X0028919Y0040470D01*
X0028919Y0038872D02*
X0037000Y0038872D01*
X0037000Y0037273D02*
X0028919Y0037273D01*
X0028919Y0035675D02*
X0037000Y0035675D01*
X0037000Y0034076D02*
X0028919Y0034076D01*
X0028919Y0032478D02*
X0037000Y0032478D01*
X0037000Y0030879D02*
X0028919Y0030879D01*
X0028919Y0029281D02*
X0035755Y0029281D01*
X0019608Y0050061D02*
X0018915Y0050061D01*
X0076002Y0050061D02*
X0076694Y0050061D01*
X0084717Y0050061D02*
X0095376Y0050061D01*
X0094271Y0048463D02*
X0085821Y0048463D01*
X0085974Y0046864D02*
X0094118Y0046864D01*
X0094087Y0045266D02*
X0086005Y0045266D01*
X0086005Y0043667D02*
X0094087Y0043667D01*
X0094087Y0042069D02*
X0086005Y0042069D01*
X0086005Y0040470D02*
X0094087Y0040470D01*
X0094087Y0038872D02*
X0086005Y0038872D01*
X0086005Y0037273D02*
X0094087Y0037273D01*
X0094087Y0035675D02*
X0086005Y0035675D01*
X0086005Y0034076D02*
X0094087Y0034076D01*
X0094087Y0032478D02*
X0086005Y0032478D01*
X0086005Y0030879D02*
X0094087Y0030879D01*
X0092841Y0029281D02*
X0086005Y0029281D01*
X0026329Y0093221D02*
X0016450Y0093221D01*
X0017859Y0094820D02*
X0026329Y0094820D01*
X0025973Y0096418D02*
X0019458Y0096418D01*
X0021056Y0098017D02*
X0024375Y0098017D01*
X0189119Y0094820D02*
X0197589Y0094820D01*
X0197233Y0096418D02*
X0190717Y0096418D01*
X0192316Y0098017D02*
X0195634Y0098017D01*
D18*
X0193408Y0095506D02*
X0193729Y0095185D01*
X0193729Y0052299D01*
X0194879Y0051964D02*
X0200461Y0051964D01*
X0203572Y0048854D01*
X0206682Y0051964D01*
X0213560Y0051964D01*
X0223257Y0054268D02*
X0223257Y0046886D01*
X0215383Y0039012D01*
X0213560Y0039012D01*
X0213560Y0045272D01*
X0213560Y0039012D02*
X0213560Y0028331D01*
X0208001Y0022772D01*
X0199143Y0022772D02*
X0194879Y0027035D01*
X0194879Y0037862D01*
X0182410Y0050331D01*
X0182410Y0095606D01*
X0190284Y0103480D01*
X0197666Y0103480D01*
X0203251Y0097896D01*
X0203251Y0095506D01*
X0203251Y0081014D01*
X0201111Y0078874D01*
X0201111Y0070043D01*
X0201119Y0070035D01*
X0208001Y0070508D02*
X0213093Y0075600D01*
X0213093Y0095506D01*
X0208493Y0069031D02*
X0223257Y0054268D01*
X0203572Y0048854D02*
X0203572Y0032614D01*
X0194879Y0037862D02*
X0194879Y0045272D01*
X0166170Y0046886D02*
X0158296Y0039012D01*
X0156473Y0039012D01*
X0156473Y0045272D01*
X0149595Y0051964D02*
X0146485Y0048854D01*
X0143375Y0051964D01*
X0137792Y0051964D01*
X0136643Y0052299D02*
X0136643Y0095185D01*
X0136322Y0095506D01*
X0133198Y0103480D02*
X0125324Y0095606D01*
X0125324Y0050331D01*
X0137792Y0037862D01*
X0137792Y0045272D01*
X0146485Y0048854D02*
X0146485Y0032614D01*
X0150914Y0022772D02*
X0156473Y0028331D01*
X0156473Y0039012D01*
X0166170Y0046886D02*
X0166170Y0054268D01*
X0151406Y0069031D01*
X0150914Y0070508D02*
X0156007Y0075600D01*
X0156007Y0095506D01*
X0146164Y0095506D02*
X0146164Y0081014D01*
X0144024Y0078874D01*
X0144024Y0070043D01*
X0144032Y0070035D01*
X0109083Y0054268D02*
X0109083Y0046886D01*
X0101209Y0039012D01*
X0099387Y0039012D01*
X0099387Y0045272D01*
X0092509Y0051964D02*
X0089398Y0048854D01*
X0086288Y0051964D01*
X0080706Y0051964D01*
X0079556Y0052299D02*
X0079556Y0095185D01*
X0079235Y0095506D01*
X0083493Y0103480D02*
X0089078Y0097896D01*
X0089078Y0095506D01*
X0089078Y0081014D01*
X0086938Y0078874D01*
X0086938Y0070043D01*
X0086946Y0070035D01*
X0093828Y0070508D02*
X0098920Y0075600D01*
X0098920Y0095506D01*
X0083493Y0103480D02*
X0076111Y0103480D01*
X0068237Y0095606D01*
X0068237Y0050331D01*
X0080706Y0037862D01*
X0080706Y0045272D01*
X0089398Y0048854D02*
X0089398Y0032614D01*
X0093828Y0022772D02*
X0099387Y0028331D01*
X0099387Y0039012D01*
X0080706Y0037862D02*
X0080706Y0027035D01*
X0084969Y0022772D01*
X0051997Y0046886D02*
X0044123Y0039012D01*
X0042300Y0039012D01*
X0042300Y0045272D01*
X0051997Y0046886D02*
X0051997Y0054268D01*
X0037233Y0069031D01*
X0036741Y0070508D02*
X0041833Y0075600D01*
X0041833Y0095506D01*
X0031991Y0095506D02*
X0031991Y0081014D01*
X0029851Y0078874D01*
X0029851Y0070043D01*
X0029859Y0070035D01*
X0029202Y0051964D02*
X0023619Y0051964D01*
X0022469Y0052299D02*
X0022469Y0095185D01*
X0022148Y0095506D01*
X0026406Y0103480D02*
X0031991Y0097896D01*
X0031991Y0095506D01*
X0026406Y0103480D02*
X0019024Y0103480D01*
X0011150Y0095606D01*
X0011150Y0050331D01*
X0023619Y0037862D01*
X0023619Y0045272D01*
X0029202Y0051964D02*
X0032312Y0048854D01*
X0035422Y0051964D01*
X0042300Y0051964D01*
X0032312Y0048854D02*
X0032312Y0032614D01*
X0023619Y0037862D02*
X0023619Y0027035D01*
X0027883Y0022772D01*
X0036741Y0022772D02*
X0042300Y0028331D01*
X0042300Y0039012D01*
X0092509Y0051964D02*
X0099387Y0051964D01*
X0109083Y0054268D02*
X0094320Y0069031D01*
X0146164Y0095506D02*
X0146164Y0097896D01*
X0140580Y0103480D01*
X0133198Y0103480D01*
X0149595Y0051964D02*
X0156473Y0051964D01*
X0137792Y0037862D02*
X0137792Y0027035D01*
X0142056Y0022772D01*
M02*
