G75*
%MOIN*%
%OFA0B0*%
%FSLAX25Y25*%
%IPPOS*%
%LPD*%
%AMOC8*
5,1,8,0,0,1.08239X$1,22.5*
%
%ADD10R,0.03937X0.04331*%
%ADD11R,0.07087X0.04724*%
%ADD12R,0.04724X0.05512*%
%ADD13R,0.04331X0.03937*%
%ADD14R,0.04724X0.04724*%
%ADD15C,0.00100*%
%ADD16C,0.01600*%
%ADD17C,0.06600*%
%ADD18C,0.04000*%
%ADD19C,0.05000*%
D10*
X0032969Y0045272D03*
X0032969Y0051964D03*
X0057064Y0051964D03*
X0057064Y0045272D03*
X0119583Y0045272D03*
X0119583Y0051964D03*
X0143678Y0051964D03*
X0143678Y0045272D03*
X0206198Y0045272D03*
X0206198Y0051964D03*
X0230292Y0051964D03*
X0230292Y0045272D03*
X0292812Y0045272D03*
X0292812Y0051964D03*
X0316906Y0051964D03*
X0316906Y0045272D03*
D11*
X0304367Y0032575D03*
X0217753Y0032575D03*
X0131139Y0032575D03*
X0044524Y0032575D03*
D12*
X0040194Y0022338D03*
X0048855Y0022338D03*
X0126808Y0022338D03*
X0135469Y0022338D03*
X0213422Y0022338D03*
X0222083Y0022338D03*
X0300036Y0022338D03*
X0308698Y0022338D03*
D13*
X0308698Y0070035D03*
X0302005Y0070035D03*
X0222083Y0070035D03*
X0215391Y0070035D03*
X0135469Y0070035D03*
X0128776Y0070035D03*
X0048855Y0070035D03*
X0042162Y0070035D03*
D14*
X0044294Y0095506D03*
X0034452Y0095506D03*
X0054137Y0095506D03*
X0121066Y0095506D03*
X0130908Y0095506D03*
X0140751Y0095506D03*
X0207680Y0095506D03*
X0217522Y0095506D03*
X0227365Y0095506D03*
X0294294Y0095506D03*
X0304137Y0095506D03*
X0313979Y0095506D03*
D15*
X0313979Y0099506D01*
X0317979Y0095506D01*
X0313979Y0091506D01*
X0309979Y0095506D01*
X0313979Y0099506D01*
X0304137Y0099506D02*
X0304137Y0095506D01*
X0304137Y0099506D02*
X0308137Y0095506D01*
X0304137Y0091506D01*
X0300137Y0095506D01*
X0304137Y0099506D01*
X0294294Y0099506D02*
X0294294Y0095506D01*
X0294294Y0099506D02*
X0298294Y0095506D01*
X0294294Y0091506D01*
X0290294Y0095506D01*
X0294294Y0099506D01*
X0227365Y0099506D02*
X0227365Y0095506D01*
X0227365Y0099506D02*
X0231365Y0095506D01*
X0227365Y0091506D01*
X0223365Y0095506D01*
X0227365Y0099506D01*
X0217522Y0099506D02*
X0217522Y0095506D01*
X0217522Y0099506D02*
X0221522Y0095506D01*
X0217522Y0091506D01*
X0213522Y0095506D01*
X0217522Y0099506D01*
X0207680Y0099506D02*
X0207680Y0095506D01*
X0207680Y0099506D02*
X0211680Y0095506D01*
X0207680Y0091506D01*
X0203680Y0095506D01*
X0207680Y0099506D01*
X0140751Y0099506D02*
X0140751Y0095506D01*
X0140751Y0099506D02*
X0144751Y0095506D01*
X0140751Y0091506D01*
X0136751Y0095506D01*
X0140751Y0099506D01*
X0130908Y0099506D02*
X0130908Y0095506D01*
X0130908Y0099506D02*
X0134908Y0095506D01*
X0130908Y0091506D01*
X0126908Y0095506D01*
X0130908Y0099506D01*
X0121066Y0099506D02*
X0121066Y0095506D01*
X0121066Y0099506D02*
X0125066Y0095506D01*
X0121066Y0091506D01*
X0117066Y0095506D01*
X0121066Y0099506D01*
X0054137Y0099506D02*
X0054137Y0095506D01*
X0054137Y0099506D02*
X0058137Y0095506D01*
X0054137Y0091506D01*
X0050137Y0095506D01*
X0054137Y0099506D01*
X0044294Y0099506D02*
X0044294Y0095506D01*
X0044294Y0099506D02*
X0048294Y0095506D01*
X0044294Y0091506D01*
X0040294Y0095506D01*
X0044294Y0099506D01*
X0034452Y0099506D02*
X0034452Y0095506D01*
X0034452Y0099506D02*
X0038452Y0095506D01*
X0034452Y0091506D01*
X0030452Y0095506D01*
X0034452Y0099506D01*
D16*
X0034931Y0099615D02*
X0029414Y0099615D01*
X0029632Y0099833D02*
X0034841Y0099833D01*
X0035083Y0099249D01*
X0037570Y0096762D01*
X0037523Y0096647D01*
X0037523Y0081608D01*
X0034098Y0078183D01*
X0033094Y0075758D01*
X0033094Y0068703D01*
X0034098Y0066277D01*
X0035955Y0064420D01*
X0038381Y0063416D01*
X0041007Y0063416D01*
X0043432Y0064420D01*
X0043779Y0064767D01*
X0044984Y0064767D01*
X0045509Y0064984D01*
X0046033Y0064767D01*
X0046418Y0064767D01*
X0047701Y0064235D01*
X0048827Y0064235D01*
X0048875Y0064216D01*
X0049245Y0064216D01*
X0051176Y0063416D01*
X0059598Y0063416D01*
X0060161Y0062853D01*
X0060161Y0053064D01*
X0058795Y0051698D01*
X0058377Y0051872D01*
X0055751Y0051872D01*
X0053325Y0050867D01*
X0051469Y0049010D01*
X0050464Y0046584D01*
X0050464Y0033281D01*
X0045394Y0028211D01*
X0044624Y0027892D01*
X0044524Y0027793D01*
X0044425Y0027892D01*
X0044381Y0027910D01*
X0039404Y0032887D01*
X0039404Y0042785D01*
X0038399Y0045211D01*
X0038269Y0045341D01*
X0038269Y0046326D01*
X0038238Y0046402D01*
X0038238Y0048093D01*
X0037735Y0049306D01*
X0036807Y0050234D01*
X0035594Y0050737D01*
X0030344Y0050737D01*
X0029131Y0050234D01*
X0028203Y0049306D01*
X0027701Y0048093D01*
X0027701Y0048072D01*
X0027664Y0048072D01*
X0022672Y0053064D01*
X0022672Y0092872D01*
X0029632Y0099833D01*
X0027816Y0098017D02*
X0036316Y0098017D01*
X0037523Y0096418D02*
X0026217Y0096418D01*
X0024619Y0094820D02*
X0037523Y0094820D01*
X0037523Y0093221D02*
X0023020Y0093221D01*
X0022672Y0091622D02*
X0037523Y0091622D01*
X0037523Y0090024D02*
X0022672Y0090024D01*
X0022672Y0088425D02*
X0037523Y0088425D01*
X0037523Y0086827D02*
X0022672Y0086827D01*
X0022672Y0085228D02*
X0037523Y0085228D01*
X0037523Y0083630D02*
X0022672Y0083630D01*
X0022672Y0082031D02*
X0037523Y0082031D01*
X0036348Y0080433D02*
X0022672Y0080433D01*
X0022672Y0078834D02*
X0034750Y0078834D01*
X0033706Y0077236D02*
X0022672Y0077236D01*
X0022672Y0075637D02*
X0033094Y0075637D01*
X0033094Y0074039D02*
X0022672Y0074039D01*
X0022672Y0072440D02*
X0033094Y0072440D01*
X0033094Y0070842D02*
X0022672Y0070842D01*
X0022672Y0069243D02*
X0033094Y0069243D01*
X0033532Y0067645D02*
X0022672Y0067645D01*
X0022672Y0066046D02*
X0034329Y0066046D01*
X0035928Y0064448D02*
X0022672Y0064448D01*
X0022672Y0062849D02*
X0060161Y0062849D01*
X0060161Y0061251D02*
X0022672Y0061251D01*
X0022672Y0059652D02*
X0060161Y0059652D01*
X0060161Y0058054D02*
X0022672Y0058054D01*
X0022672Y0056455D02*
X0060161Y0056455D01*
X0060161Y0054857D02*
X0022672Y0054857D01*
X0022672Y0053258D02*
X0060161Y0053258D01*
X0055240Y0051660D02*
X0024076Y0051660D01*
X0025675Y0050061D02*
X0028958Y0050061D01*
X0027854Y0048463D02*
X0027273Y0048463D01*
X0036980Y0050061D02*
X0052520Y0050061D01*
X0051242Y0048463D02*
X0038085Y0048463D01*
X0038238Y0046864D02*
X0050580Y0046864D01*
X0050464Y0045266D02*
X0038344Y0045266D01*
X0039039Y0043667D02*
X0050464Y0043667D01*
X0050464Y0042069D02*
X0039404Y0042069D01*
X0039404Y0040470D02*
X0050464Y0040470D01*
X0050464Y0038872D02*
X0039404Y0038872D01*
X0039404Y0037273D02*
X0050464Y0037273D01*
X0050464Y0035675D02*
X0039404Y0035675D01*
X0039404Y0034076D02*
X0050464Y0034076D01*
X0049660Y0032478D02*
X0039814Y0032478D01*
X0041412Y0030879D02*
X0048062Y0030879D01*
X0046463Y0029281D02*
X0043011Y0029281D01*
X0109286Y0053064D02*
X0109286Y0092872D01*
X0116246Y0099833D01*
X0121455Y0099833D01*
X0121697Y0099249D01*
X0123554Y0097393D01*
X0124184Y0096762D01*
X0124137Y0096647D01*
X0124137Y0081608D01*
X0120713Y0078183D01*
X0119708Y0075758D01*
X0119708Y0068703D01*
X0120713Y0066277D01*
X0122569Y0064420D01*
X0124995Y0063416D01*
X0127621Y0063416D01*
X0130046Y0064420D01*
X0130393Y0064767D01*
X0131598Y0064767D01*
X0132123Y0064984D01*
X0132648Y0064767D01*
X0133032Y0064767D01*
X0134316Y0064235D01*
X0135441Y0064235D01*
X0135489Y0064216D01*
X0135859Y0064216D01*
X0137790Y0063416D01*
X0146212Y0063416D01*
X0146775Y0062853D01*
X0146775Y0053064D01*
X0145409Y0051698D01*
X0144991Y0051872D01*
X0142365Y0051872D01*
X0139939Y0050867D01*
X0138083Y0049010D01*
X0137078Y0046584D01*
X0137078Y0033281D01*
X0132008Y0028211D01*
X0131238Y0027892D01*
X0131139Y0027793D01*
X0131039Y0027892D01*
X0130995Y0027910D01*
X0126018Y0032887D01*
X0126018Y0042785D01*
X0125013Y0045211D01*
X0124883Y0045341D01*
X0124883Y0046326D01*
X0124852Y0046402D01*
X0124852Y0048093D01*
X0124350Y0049306D01*
X0123421Y0050234D01*
X0122208Y0050737D01*
X0116959Y0050737D01*
X0115746Y0050234D01*
X0114817Y0049306D01*
X0114315Y0048093D01*
X0114315Y0048072D01*
X0114278Y0048072D01*
X0109286Y0053064D01*
X0109286Y0053258D02*
X0146775Y0053258D01*
X0146775Y0054857D02*
X0109286Y0054857D01*
X0109286Y0056455D02*
X0146775Y0056455D01*
X0146775Y0058054D02*
X0109286Y0058054D01*
X0109286Y0059652D02*
X0146775Y0059652D01*
X0146775Y0061251D02*
X0109286Y0061251D01*
X0109286Y0062849D02*
X0146775Y0062849D01*
X0133803Y0064448D02*
X0130074Y0064448D01*
X0122542Y0064448D02*
X0109286Y0064448D01*
X0109286Y0066046D02*
X0120943Y0066046D01*
X0120146Y0067645D02*
X0109286Y0067645D01*
X0109286Y0069243D02*
X0119708Y0069243D01*
X0119708Y0070842D02*
X0109286Y0070842D01*
X0109286Y0072440D02*
X0119708Y0072440D01*
X0119708Y0074039D02*
X0109286Y0074039D01*
X0109286Y0075637D02*
X0119708Y0075637D01*
X0120320Y0077236D02*
X0109286Y0077236D01*
X0109286Y0078834D02*
X0121364Y0078834D01*
X0122962Y0080433D02*
X0109286Y0080433D01*
X0109286Y0082031D02*
X0124137Y0082031D01*
X0124137Y0083630D02*
X0109286Y0083630D01*
X0109286Y0085228D02*
X0124137Y0085228D01*
X0124137Y0086827D02*
X0109286Y0086827D01*
X0109286Y0088425D02*
X0124137Y0088425D01*
X0124137Y0090024D02*
X0109286Y0090024D01*
X0109286Y0091622D02*
X0124137Y0091622D01*
X0124137Y0093221D02*
X0109634Y0093221D01*
X0111233Y0094820D02*
X0124137Y0094820D01*
X0124137Y0096418D02*
X0112831Y0096418D01*
X0114430Y0098017D02*
X0122930Y0098017D01*
X0123554Y0097393D02*
X0123554Y0097393D01*
X0121545Y0099615D02*
X0116028Y0099615D01*
X0195900Y0092872D02*
X0202861Y0099833D01*
X0208069Y0099833D01*
X0208311Y0099249D01*
X0210168Y0097393D01*
X0210799Y0096762D01*
X0210751Y0096647D01*
X0210751Y0081608D01*
X0207327Y0078183D01*
X0206322Y0075758D01*
X0206322Y0068703D01*
X0207327Y0066277D01*
X0209183Y0064420D01*
X0211609Y0063416D01*
X0214235Y0063416D01*
X0216661Y0064420D01*
X0217007Y0064767D01*
X0218212Y0064767D01*
X0218737Y0064984D01*
X0219262Y0064767D01*
X0219647Y0064767D01*
X0220930Y0064235D01*
X0222055Y0064235D01*
X0222103Y0064216D01*
X0222473Y0064216D01*
X0224404Y0063416D01*
X0232826Y0063416D01*
X0233389Y0062853D01*
X0233389Y0053064D01*
X0232023Y0051698D01*
X0231605Y0051872D01*
X0228979Y0051872D01*
X0226554Y0050867D01*
X0224697Y0049010D01*
X0223692Y0046584D01*
X0223692Y0033281D01*
X0218622Y0028211D01*
X0217852Y0027892D01*
X0217753Y0027793D01*
X0217654Y0027892D01*
X0217609Y0027910D01*
X0212632Y0032887D01*
X0212632Y0042785D01*
X0211627Y0045211D01*
X0211498Y0045341D01*
X0211498Y0046326D01*
X0211466Y0046402D01*
X0211466Y0048093D01*
X0210964Y0049306D01*
X0210035Y0050234D01*
X0208823Y0050737D01*
X0203573Y0050737D01*
X0202360Y0050234D01*
X0201432Y0049306D01*
X0200929Y0048093D01*
X0200929Y0048072D01*
X0200892Y0048072D01*
X0195900Y0053064D01*
X0195900Y0092872D01*
X0196249Y0093221D02*
X0210751Y0093221D01*
X0210751Y0091622D02*
X0195900Y0091622D01*
X0195900Y0090024D02*
X0210751Y0090024D01*
X0210751Y0088425D02*
X0195900Y0088425D01*
X0195900Y0086827D02*
X0210751Y0086827D01*
X0210751Y0085228D02*
X0195900Y0085228D01*
X0195900Y0083630D02*
X0210751Y0083630D01*
X0210751Y0082031D02*
X0195900Y0082031D01*
X0195900Y0080433D02*
X0209576Y0080433D01*
X0207978Y0078834D02*
X0195900Y0078834D01*
X0195900Y0077236D02*
X0206934Y0077236D01*
X0206322Y0075637D02*
X0195900Y0075637D01*
X0195900Y0074039D02*
X0206322Y0074039D01*
X0206322Y0072440D02*
X0195900Y0072440D01*
X0195900Y0070842D02*
X0206322Y0070842D01*
X0206322Y0069243D02*
X0195900Y0069243D01*
X0195900Y0067645D02*
X0206760Y0067645D01*
X0207558Y0066046D02*
X0195900Y0066046D01*
X0195900Y0064448D02*
X0209156Y0064448D01*
X0216688Y0064448D02*
X0220417Y0064448D01*
X0233389Y0062849D02*
X0195900Y0062849D01*
X0195900Y0061251D02*
X0233389Y0061251D01*
X0233389Y0059652D02*
X0195900Y0059652D01*
X0195900Y0058054D02*
X0233389Y0058054D01*
X0233389Y0056455D02*
X0195900Y0056455D01*
X0195900Y0054857D02*
X0233389Y0054857D01*
X0233389Y0053258D02*
X0195900Y0053258D01*
X0197305Y0051660D02*
X0228468Y0051660D01*
X0225748Y0050061D02*
X0210209Y0050061D01*
X0211313Y0048463D02*
X0224470Y0048463D01*
X0223808Y0046864D02*
X0211466Y0046864D01*
X0211573Y0045266D02*
X0223692Y0045266D01*
X0223692Y0043667D02*
X0212267Y0043667D01*
X0212632Y0042069D02*
X0223692Y0042069D01*
X0223692Y0040470D02*
X0212632Y0040470D01*
X0212632Y0038872D02*
X0223692Y0038872D01*
X0223692Y0037273D02*
X0212632Y0037273D01*
X0212632Y0035675D02*
X0223692Y0035675D01*
X0223692Y0034076D02*
X0212632Y0034076D01*
X0213042Y0032478D02*
X0222889Y0032478D01*
X0221290Y0030879D02*
X0214640Y0030879D01*
X0216239Y0029281D02*
X0219692Y0029281D01*
X0201082Y0048463D02*
X0200502Y0048463D01*
X0198903Y0050061D02*
X0202187Y0050061D01*
X0141854Y0051660D02*
X0110691Y0051660D01*
X0112289Y0050061D02*
X0115572Y0050061D01*
X0114468Y0048463D02*
X0113888Y0048463D01*
X0123595Y0050061D02*
X0139134Y0050061D01*
X0137856Y0048463D02*
X0124699Y0048463D01*
X0124852Y0046864D02*
X0137194Y0046864D01*
X0137078Y0045266D02*
X0124959Y0045266D01*
X0125653Y0043667D02*
X0137078Y0043667D01*
X0137078Y0042069D02*
X0126018Y0042069D01*
X0126018Y0040470D02*
X0137078Y0040470D01*
X0137078Y0038872D02*
X0126018Y0038872D01*
X0126018Y0037273D02*
X0137078Y0037273D01*
X0137078Y0035675D02*
X0126018Y0035675D01*
X0126018Y0034076D02*
X0137078Y0034076D01*
X0136275Y0032478D02*
X0126428Y0032478D01*
X0128026Y0030879D02*
X0134676Y0030879D01*
X0133078Y0029281D02*
X0129625Y0029281D01*
X0047188Y0064448D02*
X0043460Y0064448D01*
X0197847Y0094820D02*
X0210751Y0094820D01*
X0210751Y0096418D02*
X0199446Y0096418D01*
X0201044Y0098017D02*
X0209544Y0098017D01*
X0210168Y0097393D02*
X0210168Y0097393D01*
X0208160Y0099615D02*
X0202643Y0099615D01*
X0282514Y0092872D02*
X0289475Y0099833D01*
X0294684Y0099833D01*
X0294925Y0099249D01*
X0296782Y0097393D01*
X0297413Y0096762D01*
X0297365Y0096647D01*
X0297365Y0081608D01*
X0293941Y0078183D01*
X0292936Y0075758D01*
X0292936Y0068703D01*
X0293941Y0066277D01*
X0295798Y0064420D01*
X0298223Y0063416D01*
X0300849Y0063416D01*
X0303275Y0064420D01*
X0303621Y0064767D01*
X0304826Y0064767D01*
X0305351Y0064984D01*
X0305876Y0064767D01*
X0306261Y0064767D01*
X0307544Y0064235D01*
X0308670Y0064235D01*
X0308717Y0064216D01*
X0309087Y0064216D01*
X0311019Y0063416D01*
X0319440Y0063416D01*
X0320003Y0062853D01*
X0320003Y0053064D01*
X0318637Y0051698D01*
X0318219Y0051872D01*
X0315593Y0051872D01*
X0313168Y0050867D01*
X0311311Y0049010D01*
X0310306Y0046584D01*
X0310306Y0033281D01*
X0305236Y0028211D01*
X0304466Y0027892D01*
X0304367Y0027793D01*
X0304268Y0027892D01*
X0304223Y0027910D01*
X0299246Y0032887D01*
X0299246Y0042785D01*
X0298242Y0045211D01*
X0298112Y0045341D01*
X0298112Y0046326D01*
X0298080Y0046402D01*
X0298080Y0048093D01*
X0297578Y0049306D01*
X0296650Y0050234D01*
X0295437Y0050737D01*
X0290187Y0050737D01*
X0288974Y0050234D01*
X0288046Y0049306D01*
X0287543Y0048093D01*
X0287543Y0048072D01*
X0287506Y0048072D01*
X0282514Y0053064D01*
X0282514Y0092872D01*
X0282863Y0093221D02*
X0297365Y0093221D01*
X0297365Y0091622D02*
X0282514Y0091622D01*
X0282514Y0090024D02*
X0297365Y0090024D01*
X0297365Y0088425D02*
X0282514Y0088425D01*
X0282514Y0086827D02*
X0297365Y0086827D01*
X0297365Y0085228D02*
X0282514Y0085228D01*
X0282514Y0083630D02*
X0297365Y0083630D01*
X0297365Y0082031D02*
X0282514Y0082031D01*
X0282514Y0080433D02*
X0296191Y0080433D01*
X0294592Y0078834D02*
X0282514Y0078834D01*
X0282514Y0077236D02*
X0293549Y0077236D01*
X0292936Y0075637D02*
X0282514Y0075637D01*
X0282514Y0074039D02*
X0292936Y0074039D01*
X0292936Y0072440D02*
X0282514Y0072440D01*
X0282514Y0070842D02*
X0292936Y0070842D01*
X0292936Y0069243D02*
X0282514Y0069243D01*
X0282514Y0067645D02*
X0293374Y0067645D01*
X0294172Y0066046D02*
X0282514Y0066046D01*
X0282514Y0064448D02*
X0295770Y0064448D01*
X0303302Y0064448D02*
X0307031Y0064448D01*
X0320003Y0062849D02*
X0282514Y0062849D01*
X0282514Y0061251D02*
X0320003Y0061251D01*
X0320003Y0059652D02*
X0282514Y0059652D01*
X0282514Y0058054D02*
X0320003Y0058054D01*
X0320003Y0056455D02*
X0282514Y0056455D01*
X0282514Y0054857D02*
X0320003Y0054857D01*
X0320003Y0053258D02*
X0282514Y0053258D01*
X0283919Y0051660D02*
X0315082Y0051660D01*
X0312362Y0050061D02*
X0296823Y0050061D01*
X0297927Y0048463D02*
X0311084Y0048463D01*
X0310422Y0046864D02*
X0298080Y0046864D01*
X0298187Y0045266D02*
X0310306Y0045266D01*
X0310306Y0043667D02*
X0298881Y0043667D01*
X0299246Y0042069D02*
X0310306Y0042069D01*
X0310306Y0040470D02*
X0299246Y0040470D01*
X0299246Y0038872D02*
X0310306Y0038872D01*
X0310306Y0037273D02*
X0299246Y0037273D01*
X0299246Y0035675D02*
X0310306Y0035675D01*
X0310306Y0034076D02*
X0299246Y0034076D01*
X0299656Y0032478D02*
X0309503Y0032478D01*
X0307904Y0030879D02*
X0301255Y0030879D01*
X0302853Y0029281D02*
X0306306Y0029281D01*
X0287696Y0048463D02*
X0287116Y0048463D01*
X0285517Y0050061D02*
X0288801Y0050061D01*
X0284461Y0094820D02*
X0297365Y0094820D01*
X0297365Y0096418D02*
X0286060Y0096418D01*
X0287658Y0098017D02*
X0296158Y0098017D01*
X0296782Y0097393D02*
X0296782Y0097393D01*
X0294774Y0099615D02*
X0289257Y0099615D01*
D17*
X0294294Y0095506D02*
X0287233Y0088445D01*
X0287233Y0057712D01*
X0292646Y0052299D01*
X0293146Y0052299D01*
X0292812Y0051964D01*
X0293146Y0052299D02*
X0301505Y0052299D01*
X0304457Y0049346D01*
X0307076Y0051964D01*
X0304457Y0049346D02*
X0304457Y0045409D01*
X0304367Y0045319D01*
X0304367Y0032575D01*
X0300036Y0022764D02*
X0292646Y0030153D01*
X0292646Y0041472D01*
X0284772Y0041472D01*
X0275914Y0050331D01*
X0275914Y0095606D01*
X0286741Y0106433D01*
X0297568Y0106433D01*
X0300520Y0103480D01*
X0300520Y0102988D01*
X0304137Y0099372D01*
X0304137Y0095506D01*
X0303965Y0095335D01*
X0303965Y0078874D01*
X0299536Y0074445D01*
X0299536Y0070016D01*
X0312331Y0070016D02*
X0316761Y0070016D01*
X0322174Y0070016D01*
X0326603Y0065587D01*
X0326603Y0050331D01*
X0321190Y0044917D01*
X0316906Y0045272D02*
X0316906Y0030547D01*
X0308698Y0022338D01*
X0300036Y0022338D02*
X0300036Y0022764D01*
X0239989Y0050331D02*
X0234576Y0044917D01*
X0230292Y0045272D02*
X0230292Y0030547D01*
X0222083Y0022338D01*
X0213422Y0022338D02*
X0213422Y0022764D01*
X0206032Y0030153D01*
X0206032Y0041472D01*
X0198158Y0041472D01*
X0189300Y0050331D01*
X0189300Y0095606D01*
X0200127Y0106433D01*
X0210954Y0106433D01*
X0213906Y0103480D01*
X0213906Y0102988D01*
X0217522Y0099372D01*
X0217522Y0095506D01*
X0217351Y0095335D01*
X0217351Y0078874D01*
X0212922Y0074445D01*
X0212922Y0070016D01*
X0225717Y0070016D02*
X0230146Y0070016D01*
X0235560Y0070016D01*
X0239989Y0065587D01*
X0239989Y0050331D01*
X0220461Y0051964D02*
X0217843Y0049346D01*
X0214891Y0052299D01*
X0206532Y0052299D01*
X0206032Y0052299D01*
X0200619Y0057712D01*
X0200619Y0088445D01*
X0207680Y0095506D01*
X0227365Y0095506D02*
X0231623Y0091248D01*
X0231623Y0071492D01*
X0230146Y0070016D01*
X0206532Y0052299D02*
X0206198Y0051964D01*
X0217843Y0049346D02*
X0217843Y0045409D01*
X0217753Y0045319D01*
X0217753Y0032575D01*
X0153375Y0050331D02*
X0153375Y0065587D01*
X0148946Y0070016D01*
X0143532Y0070016D01*
X0139103Y0070016D01*
X0143532Y0070016D02*
X0145009Y0071492D01*
X0145009Y0091248D01*
X0140751Y0095506D01*
X0130908Y0095506D02*
X0130908Y0099372D01*
X0127292Y0102988D01*
X0127292Y0103480D01*
X0124339Y0106433D01*
X0113513Y0106433D01*
X0102686Y0095606D01*
X0102686Y0050331D01*
X0111544Y0041472D01*
X0119418Y0041472D01*
X0119418Y0030153D01*
X0126808Y0022764D01*
X0126808Y0022338D01*
X0135469Y0022338D02*
X0143678Y0030547D01*
X0143678Y0045272D01*
X0147961Y0044917D02*
X0153375Y0050331D01*
X0133847Y0051964D02*
X0131229Y0049346D01*
X0128276Y0052299D01*
X0119918Y0052299D01*
X0119418Y0052299D01*
X0114005Y0057712D01*
X0114005Y0088445D01*
X0121066Y0095506D01*
X0130737Y0095335D02*
X0130737Y0078874D01*
X0126308Y0074445D01*
X0126308Y0070016D01*
X0119918Y0052299D02*
X0119583Y0051964D01*
X0131229Y0049346D02*
X0131229Y0045409D01*
X0131139Y0045319D01*
X0131139Y0032575D01*
X0066761Y0050331D02*
X0066761Y0065587D01*
X0062331Y0070016D01*
X0056918Y0070016D01*
X0052489Y0070016D01*
X0056918Y0070016D02*
X0058394Y0071492D01*
X0058394Y0091248D01*
X0054137Y0095506D01*
X0044294Y0095506D02*
X0044294Y0099372D01*
X0040678Y0102988D01*
X0040678Y0103480D01*
X0037725Y0106433D01*
X0026898Y0106433D01*
X0016072Y0095606D01*
X0016072Y0050331D01*
X0024930Y0041472D01*
X0032804Y0041472D01*
X0032804Y0030153D01*
X0040194Y0022764D01*
X0040194Y0022338D01*
X0048855Y0022338D02*
X0057064Y0030547D01*
X0057064Y0045272D01*
X0061347Y0044917D02*
X0066761Y0050331D01*
X0047233Y0051964D02*
X0044615Y0049346D01*
X0041662Y0052299D01*
X0033304Y0052299D01*
X0032804Y0052299D01*
X0027391Y0057712D01*
X0027391Y0088445D01*
X0034452Y0095506D01*
X0044123Y0095335D02*
X0044123Y0078874D01*
X0039694Y0074445D01*
X0039694Y0070016D01*
X0033304Y0052299D02*
X0032969Y0051964D01*
X0044615Y0049346D02*
X0044615Y0045409D01*
X0044524Y0045319D01*
X0044524Y0032575D01*
X0044123Y0095335D02*
X0044294Y0095506D01*
X0130737Y0095335D02*
X0130908Y0095506D01*
X0313979Y0095506D02*
X0318237Y0091248D01*
X0318237Y0071492D01*
X0316761Y0070016D01*
D18*
X0312331Y0070016D02*
X0312312Y0070035D01*
X0308698Y0070035D01*
X0302005Y0070035D02*
X0301985Y0070016D01*
X0299536Y0070016D01*
X0292812Y0045272D02*
X0292812Y0041638D01*
X0292646Y0041472D01*
X0316906Y0045272D02*
X0317261Y0044917D01*
X0321190Y0044917D01*
X0234576Y0044917D02*
X0230646Y0044917D01*
X0230292Y0045272D01*
X0206198Y0045272D02*
X0206198Y0041638D01*
X0206032Y0041472D01*
X0147961Y0044917D02*
X0144032Y0044917D01*
X0143678Y0045272D01*
X0119583Y0045272D02*
X0119583Y0041638D01*
X0119418Y0041472D01*
X0061347Y0044917D02*
X0057418Y0044917D01*
X0057064Y0045272D01*
X0032969Y0045272D02*
X0032969Y0041638D01*
X0032804Y0041472D01*
X0039694Y0070016D02*
X0042143Y0070016D01*
X0042162Y0070035D01*
X0048855Y0070035D02*
X0052469Y0070035D01*
X0052489Y0070016D01*
X0126308Y0070016D02*
X0128757Y0070016D01*
X0128776Y0070035D01*
X0135469Y0070035D02*
X0139083Y0070035D01*
X0139103Y0070016D01*
X0212922Y0070016D02*
X0215371Y0070016D01*
X0215391Y0070035D01*
X0222083Y0070035D02*
X0225698Y0070035D01*
X0225717Y0070016D01*
D19*
X0223257Y0070016D02*
X0223237Y0070035D01*
X0222083Y0070035D01*
X0136643Y0070016D02*
X0136623Y0070035D01*
X0135469Y0070035D01*
X0050028Y0070016D02*
X0050009Y0070035D01*
X0048855Y0070035D01*
X0308698Y0070035D02*
X0309851Y0070035D01*
X0309871Y0070016D01*
M02*
