%
M48
M72
T01C0.0320
T02C0.0354
T03C0.0394
T04C0.0630
T05C0.1004
%
T01
X7459Y4279
X8209Y3779
X8209Y4779
X10709Y4779
X10709Y3779
X11209Y7779
X7209Y7779
T02
X4614Y7783
X3614Y8185
X3614Y7381
X4614Y6980
X3614Y6578
X4614Y6177
X3614Y5775
X4614Y5374
T03
X14209Y4779
X14209Y3779
X14209Y6779
X14209Y7779
X14209Y8779
X14209Y9779
T04
X4614Y3580
X4614Y9978
T05
X2709Y9708
X2709Y3850
M30
