# Blender v2.69 (sub 0) OBJ File: ''
# www.blender.org
v -29.438000 -30.656004 25.000994
v -29.438000 -30.656004 21.998995
v -29.438000 -44.657005 21.998993
v -29.438000 -44.657005 25.000992
v 11.563000 -30.656004 21.998995
v 11.563000 -30.656004 25.000994
v 11.563000 -44.657005 25.000992
v 11.563000 -44.657005 21.998993
v 6.063000 -44.657001 -0.001007
v 6.063000 -44.657005 21.998993
v -23.938000 -44.657005 21.998993
v -23.938000 -44.657001 -0.001007
v 6.063000 -30.656004 21.998995
v 6.063000 -30.656000 -0.001005
v -23.938000 -30.656000 -0.001005
v -23.938000 -30.656004 21.998995
v -2.059000 -39.778004 32.999992
v -1.086000 -40.429005 32.999992
v -1.086000 -40.429008 36.999992
v -2.059000 -39.778008 36.999992
v 6.063000 -44.657005 32.999992
v -23.938000 -44.657005 32.999992
v -23.938000 -44.657005 25.000992
v 6.063000 -44.657005 25.000992
v 0.063000 -40.657005 32.999992
v 0.063000 -40.657009 36.999992
v -23.938000 -30.656006 32.999996
v -23.938000 -30.656004 25.000994
v 1.211000 -40.429005 32.999992
v 1.211000 -40.429008 36.999992
v 6.063000 -30.656004 25.000994
v 6.063000 -30.656006 32.999996
v 2.184000 -39.778004 32.999992
v 2.184000 -39.778008 36.999992
v 2.835000 -38.805004 32.999992
v 2.835000 -38.805008 36.999992
v 3.063000 -37.656002 32.999992
v 3.063000 -37.656006 36.999992
v 2.835000 -36.508003 32.999992
v 2.835000 -36.508007 36.999992
v -1.086000 -34.884007 36.999996
v -2.059000 -35.535007 36.999992
v 0.063000 -34.656006 36.999996
v -2.709000 -36.508007 36.999992
v 1.211000 -34.884007 36.999996
v -2.938000 -37.656006 36.999992
v -2.709000 -38.805008 36.999992
v 2.184000 -35.535007 36.999992
v 0.063000 -34.656002 32.999996
v -1.086000 -34.884003 32.999996
v -2.059000 -35.535004 32.999992
v -2.709000 -36.508003 32.999992
v -2.938000 -37.656002 32.999992
v -2.709000 -38.805004 32.999992
v 2.184000 -35.535004 32.999992
v 1.211000 -34.884003 32.999996
vn -1.000000 0.000000 0.000000
vn 1.000000 -0.000000 0.000000
vn 0.000000 -1.000000 0.000000
vn 0.000000 1.000000 0.000000
vn 0.000000 0.000000 -1.000000
vn -0.556080 -0.831129 -0.000002
vn -0.556080 -0.831129 0.000000
vn -0.194639 -0.980875 0.000000
vn 0.194802 -0.980843 0.000000
vn 0.556080 -0.831129 -0.000002
vn 0.556080 -0.831129 0.000000
vn 0.831129 -0.556080 0.000000
vn 0.831129 -0.556080 -0.000001
vn 0.980875 -0.194638 -0.000000
vn 0.980843 0.194801 0.000000
vn 0.980843 0.194802 0.000000
vn 0.000000 -0.000008 1.000000
vn 0.000000 0.000002 1.000000
vn 0.000000 -0.000002 1.000000
vn 0.000000 0.000000 1.000000
vn 0.000003 -0.000001 1.000000
vn -0.000004 -0.000001 1.000000
vn 0.000004 -0.000001 1.000000
vn -0.000029 0.000000 1.000000
vn -0.194639 0.980875 0.000000
vn -0.556080 0.831129 0.000000
vn -0.556080 0.831129 0.000002
vn -0.831524 0.555489 0.000001
vn -0.831524 0.555489 0.000000
vn -0.980679 0.195623 0.000000
vn -0.980679 0.195624 0.000000
vn -0.980712 -0.195459 -0.000000
vn -0.831524 -0.555489 0.000000
vn -0.831524 -0.555489 -0.000001
vn -0.000002 -0.000005 1.000000
vn 0.831129 0.556080 0.000002
vn 0.831129 0.556080 0.000000
vn 0.556080 0.831129 0.000000
vn 0.556080 0.831129 0.000002
vn 0.194802 0.980843 0.000000
vn -0.000001 -0.000000 1.000000
vn 0.000000 1.000000 0.000001
vn 0.000006 -0.000000 1.000000
vn 0.000004 -0.000003 1.000000
s off
f 1//1 2//1 3//1
f 1//1 3//1 4//1
f 5//2 6//2 7//2
f 5//2 7//2 8//2
f 9//3 10//3 11//3
f 9//3 11//3 12//3
f 13//4 14//4 15//4
f 13//4 15//4 16//4
f 11//1 16//1 15//1
f 11//1 15//1 12//1
f 8//5 10//5 13//5
f 8//5 13//5 5//5
f 17//6 18//6 19//6
f 17//7 19//7 20//7
f 2//5 16//5 11//5
f 2//5 11//5 3//5
f 21//3 22//3 23//3
f 21//3 23//3 24//3
f 18//8 25//8 26//8
f 18//8 26//8 19//8
f 3//3 11//3 23//3
f 4//3 3//3 23//3
f 24//3 23//3 11//3
f 11//3 10//3 24//3
f 7//3 24//3 10//3
f 7//3 10//3 8//3
f 27//1 28//1 23//1
f 27//1 23//1 22//1
f 26//9 25//9 29//9
f 26//9 29//9 30//9
f 31//2 32//2 21//2
f 31//2 21//2 24//2
f 29//10 33//10 34//10
f 29//11 34//11 30//11
f 14//5 9//5 12//5
f 14//5 12//5 15//5
f 13//2 10//2 9//2
f 13//2 9//2 14//2
f 33//12 35//12 36//12
f 33//13 36//13 34//13
f 35//14 37//14 38//14
f 35//14 38//14 36//14
f 37//15 39//15 40//15
f 37//16 40//16 38//16
f 41//17 42//17 43//17
f 42//18 44//18 43//18
f 45//19 43//19 44//19
f 45//20 44//20 46//20
f 45//20 46//20 47//20
f 45//20 47//20 20//20
f 45//21 20//21 19//21
f 45//22 19//22 26//22
f 45//23 26//23 30//23
f 45//22 30//22 34//22
f 36//20 48//20 34//20
f 38//20 48//20 36//20
f 40//24 48//24 38//24
f 45//20 34//20 48//20
f 43//25 49//25 50//25
f 43//25 50//25 41//25
f 50//26 51//26 42//26
f 50//27 42//27 41//27
f 51//28 52//28 44//28
f 51//29 44//29 42//29
f 52//30 53//30 46//30
f 52//31 46//31 44//31
f 46//32 53//32 54//32
f 46//32 54//32 47//32
f 54//33 17//33 20//33
f 54//34 20//34 47//34
f 50//35 27//35 51//35
f 39//36 55//36 48//36
f 39//37 48//37 40//37
f 55//38 56//38 45//38
f 55//39 45//39 48//39
f 53//20 22//20 54//20
f 17//20 54//20 22//20
f 56//40 49//40 43//40
f 56//40 43//40 45//40
f 22//20 53//20 27//20
f 53//41 52//41 27//41
f 52//20 51//20 27//20
f 21//41 25//41 18//41
f 17//20 22//20 18//20
f 18//20 22//20 21//20
f 35//20 21//20 37//20
f 33//20 21//20 35//20
f 32//20 37//20 21//20
f 49//20 32//20 50//20
f 56//20 32//20 49//20
f 25//20 21//20 29//20
f 33//20 29//20 21//20
f 28//42 27//42 31//42
f 32//4 31//4 27//4
f 28//20 1//20 4//20
f 28//20 4//20 23//20
f 6//20 31//20 24//20
f 6//20 24//20 7//20
f 6//4 5//4 13//4
f 16//4 28//4 13//4
f 2//4 1//4 16//4
f 1//4 28//4 16//4
f 28//4 31//4 13//4
f 6//4 13//4 31//4
f 27//20 50//20 32//20
f 37//43 32//43 39//43
f 39//20 32//20 55//20
f 55//44 32//44 56//44
