# Blender v2.69 (sub 0) OBJ File: ''
# www.blender.org
v 7.062000 -44.157009 38.998993
v -6.939000 -44.157009 38.998993
v -6.939000 -41.156006 38.998993
v 7.062000 -41.156006 38.998993
v -6.939000 -41.156010 79.999992
v -6.939000 -44.157013 79.999992
v 7.062000 -44.157013 79.999992
v 7.062000 -41.156010 79.999992
v 7.062000 -19.156012 74.500000
v 7.062000 -41.156010 74.499992
v 7.062000 -41.156006 44.498993
v 7.062000 -19.156008 44.498997
v -6.939000 -41.156010 74.499992
v -6.939000 -19.156012 74.500000
v -6.939000 -19.156008 44.498997
v -6.939000 -41.156006 44.498993
v -6.939000 -44.157013 74.499992
v -6.939000 -44.157009 44.498993
v -6.939000 -52.157009 44.498993
v -6.939000 -52.157013 74.499992
v 7.062000 -44.157009 44.498993
v 7.062000 -44.157013 74.499992
v -2.710000 -56.157013 69.647995
v -2.939000 -56.157013 68.499992
v -2.710000 -56.157013 67.351990
v -2.060000 -56.157013 66.377991
v -1.086000 -56.157013 65.727989
v 0.062000 -56.157013 65.498993
v 1.210000 -56.157013 65.727989
v 2.184000 -56.157013 66.377991
v 2.834000 -56.157013 67.351990
v 3.062000 -56.157013 68.499992
v 2.834000 -56.157013 69.647995
v 2.184000 -56.157013 70.621994
v 1.210000 -56.157013 71.271996
v 0.062000 -56.157013 71.499992
v -1.086000 -56.157013 71.271996
v -2.060000 -56.157013 70.621994
v 7.062000 -52.157013 74.499992
v 7.062000 -52.157009 44.498993
v -2.939000 -52.157013 68.499992
v -2.710000 -52.157013 67.351990
v -2.060000 -52.157013 66.377991
v -1.086000 -52.157013 65.727989
v 3.062000 -52.157013 68.499992
v 2.834000 -52.157013 69.647995
v 0.062000 -52.157013 65.498993
v 2.184000 -52.157013 70.621994
v 0.062000 -52.157013 71.499992
v 1.210000 -52.157013 65.727989
v 1.210000 -52.157013 71.271996
v 2.184000 -52.157013 66.377991
v -1.086000 -52.157013 71.271996
v 2.834000 -52.157013 67.351990
v -2.060000 -52.157013 70.621994
v -2.710000 -52.157013 69.647995
vn 0.000000 0.000000 -1.000000
vn 0.000000 0.000000 1.000000
vn 1.000000 0.000000 0.000000
vn -1.000000 -0.000000 0.000000
vn 0.000000 1.000000 0.000000
vn 0.000000 -1.000000 0.000000
vn 0.000000 -1.000000 0.000003
vn 0.000000 -1.000000 -0.000004
vn 0.000000 -1.000000 -0.000003
vn 0.000000 -1.000000 -0.000002
vn 0.000000 -1.000000 0.000002
vn 0.000000 -1.000000 0.000004
vn 0.000000 -1.000000 -0.000006
vn 0.000000 -1.000000 0.000010
vn 0.000000 -1.000000 -0.000014
vn -0.980679 0.000000 -0.195624
vn -0.980679 0.000000 -0.195622
vn -0.831787 0.000000 -0.555094
vn -0.555099 0.000000 -0.831784
vn -0.555091 0.000000 -0.831790
vn -0.195626 0.000000 -0.980678
vn -0.195614 0.000000 -0.980681
vn 0.000000 -1.000000 0.000001
vn 0.195614 0.000000 -0.980681
vn 0.195626 0.000000 -0.980678
vn 0.000000 -1.000000 -0.000009
vn 0.555090 0.000000 -0.831790
vn 0.555100 0.000000 -0.831784
vn 0.831787 0.000000 -0.555094
vn 0.980842 0.000000 -0.194802
vn 0.980843 0.000000 -0.194800
vn 0.980843 0.000000 0.194800
vn 0.980842 0.000000 0.194802
vn 0.831787 0.000000 0.555094
vn 0.555100 0.000000 0.831784
vn 0.555090 0.000000 0.831790
vn 0.194799 0.000000 0.980843
vn -0.194799 0.000000 0.980843
vn -0.555091 0.000000 0.831790
vn -0.555099 0.000000 0.831784
vn -0.831787 0.000000 0.555094
vn -0.980679 0.000000 0.195624
vn -0.980679 0.000000 0.195622
vn 0.000000 -1.000000 -0.000001
s off
f 1//1 2//1 3//1
f 1//1 3//1 4//1
f 5//2 6//2 7//2
f 5//2 7//2 8//2
f 9//3 10//3 11//3
f 9//3 11//3 12//3
f 13//4 14//4 15//4
f 13//4 15//4 16//4
f 12//5 15//5 14//5
f 12//5 14//5 9//5
f 14//2 13//2 10//2
f 14//2 10//2 9//2
f 17//4 18//4 19//4
f 17//4 19//4 20//4
f 2//6 1//6 18//6
f 18//6 1//6 21//6
f 6//6 17//6 22//6
f 6//6 22//6 7//6
f 3//4 2//4 18//4
f 17//4 13//4 18//4
f 6//4 5//4 17//4
f 5//4 13//4 17//4
f 13//4 16//4 18//4
f 3//4 18//4 16//4
f 12//1 11//1 16//1
f 12//1 16//1 15//1
f 8//5 10//5 13//5
f 8//5 13//5 5//5
f 3//5 16//5 11//5
f 3//5 11//5 4//5
f 23//6 24//6 25//6
f 23//6 25//6 26//6
f 23//7 26//7 27//7
f 23//8 27//8 28//8
f 23//7 28//7 29//7
f 23//6 29//6 30//6
f 23//9 30//9 31//9
f 23//10 31//10 32//10
f 23//11 32//11 33//11
f 23//12 33//12 34//12
f 23//6 34//6 35//6
f 23//13 35//13 36//13
f 23//14 36//14 37//14
f 23//15 37//15 38//15
f 39//3 40//3 21//3
f 39//3 21//3 22//3
f 4//3 11//3 21//3
f 1//3 4//3 21//3
f 22//3 21//3 11//3
f 11//3 10//3 22//3
f 7//3 22//3 10//3
f 7//3 10//3 8//3
f 24//16 41//16 42//16
f 24//17 42//17 25//17
f 18//1 21//1 19//1
f 40//1 19//1 21//1
f 42//18 43//18 26//18
f 42//18 26//18 25//18
f 17//2 20//2 39//2
f 17//2 39//2 22//2
f 44//19 27//19 26//19
f 44//20 26//20 43//20
f 45//6 39//6 46//6
f 47//21 28//21 27//21
f 47//22 27//22 44//22
f 46//12 39//12 48//12
f 20//23 49//23 39//23
f 50//24 29//24 28//24
f 50//25 28//25 47//25
f 48//26 39//26 51//26
f 52//27 30//27 29//27
f 52//28 29//28 50//28
f 51//6 39//6 49//6
f 49//6 20//6 53//6
f 54//29 31//29 30//29
f 54//29 30//29 52//29
f 20//7 55//7 53//7
f 45//30 32//30 31//30
f 45//31 31//31 54//31
f 45//32 46//32 33//32
f 45//33 33//33 32//33
f 46//34 48//34 34//34
f 46//34 34//34 33//34
f 48//35 51//35 35//35
f 48//36 35//36 34//36
f 51//37 49//37 36//37
f 51//37 36//37 35//37
f 49//38 53//38 37//38
f 49//38 37//38 36//38
f 50//23 40//23 52//23
f 53//39 55//39 38//39
f 53//40 38//40 37//40
f 55//41 56//41 23//41
f 55//41 23//41 38//41
f 56//42 41//42 24//42
f 56//43 24//43 23//43
f 19//6 42//6 20//6
f 20//10 41//10 56//10
f 20//44 56//44 55//44
f 40//6 50//6 47//6
f 44//6 19//6 47//6
f 43//6 19//6 44//6
f 40//44 47//44 19//44
f 40//6 39//6 54//6
f 54//10 52//10 40//10
f 45//6 54//6 39//6
f 41//6 20//6 42//6
f 43//6 42//6 19//6
