solid OpenSCAD_Model
  facet normal 0 0 1
    outer loop
      vertex 9.1 -0.6 2
      vertex 21 0 2
      vertex 20.8344 2.632 2
    endloop
  endfacet
  facet normal 0 0 1
    outer loop
      vertex 9.1 -0.6 2
      vertex 20.8344 2.632 2
      vertex 20.3402 5.22249 2
    endloop
  endfacet
  facet normal 0 0 1
    outer loop
      vertex 9.1 -0.6 2
      vertex 20.3402 5.22249 2
      vertex 19.5253 7.73061 2
    endloop
  endfacet
  facet normal 0 0 1
    outer loop
      vertex 9.1 -0.6 2
      vertex 19.5253 7.73061 2
      vertex 18.4024 10.1168 2
    endloop
  endfacet
  facet normal 0 0 1
    outer loop
      vertex 9.1 -0.6 2
      vertex 18.4024 10.1168 2
      vertex 16.9894 12.3435 2
    endloop
  endfacet
  facet normal 0 0 1
    outer loop
      vertex 9.1 -0.6 2
      vertex 16.9894 12.3435 2
      vertex 15.3083 14.3755 2
    endloop
  endfacet
  facet normal 0 0 1
    outer loop
      vertex 9.1 -0.6 2
      vertex 15.3083 14.3755 2
      vertex 13.3859 16.1808 2
    endloop
  endfacet
  facet normal 0 0 1
    outer loop
      vertex 9.1 -0.6 2
      vertex 13.3859 16.1808 2
      vertex 11.2524 17.7309 2
    endloop
  endfacet
  facet normal 0 0 1
    outer loop
      vertex 9.1 -0.6 2
      vertex 11.2524 17.7309 2
      vertex 9.1 18.9142 2
    endloop
  endfacet
  facet normal 0 0 1
    outer loop
      vertex 21 0 2
      vertex 9.1 -0.6 2
      vertex 20.9623 -0.6 2
    endloop
  endfacet
  facet normal 0.992115 -0 0.125333
    outer loop
      vertex 6.10592 16.4881 4.81163
      vertex 6.15314 20.0585 4.43786
      vertex 6.10592 20.0706 4.81163
    endloop
  endfacet
  facet normal 0.992115 8.01735e-08 0.125334
    outer loop
      vertex 6.12962 16.4763 4.624
      vertex 6.15314 20.0585 4.43786
      vertex 6.10592 16.4881 4.81163
    endloop
  endfacet
  facet normal 0.992115 0 0.125332
    outer loop
      vertex 6.15314 20.0585 4.43786
      vertex 6.12962 16.4763 4.624
      vertex 6.15314 16.4408 4.43786
    endloop
  endfacet
  facet normal 0 1 0
    outer loop
      vertex 9.1 -0.6 2
      vertex 20.9623 -0.6 2.00592
      vertex 20.9623 -0.6 2
    endloop
  endfacet
  facet normal 0 1 0
    outer loop
      vertex 20.9623 -0.6 2.00592
      vertex 9.1 -0.6 2
      vertex 9.0059 -0.6 2.00592
    endloop
  endfacet
  facet normal 1 0 0
    outer loop
      vertex 6.10592 16.5 5
      vertex 6.10592 20.0706 34
      vertex 6.10592 16.5 34
    endloop
  endfacet
  facet normal 1 0 0
    outer loop
      vertex 6.10592 20.0706 34
      vertex 6.10592 16.5 5
      vertex 6.10592 20.0706 4.81163
    endloop
  endfacet
  facet normal 1 0 0
    outer loop
      vertex 6.10592 20.0706 4.81163
      vertex 6.10592 16.5 5
      vertex 6.10592 16.4881 4.81163
    endloop
  endfacet
  facet normal 0.637424 0 0.770514
    outer loop
      vertex 7.33664 19.6367 2.57295
      vertex 7.19702 15.4123 2.68846
      vertex 7.33664 15.2533 2.57295
    endloop
  endfacet
  facet normal 0.637424 -0 0.770513
    outer loop
      vertex 7.04636 15.545 2.81309
      vertex 7.33664 19.6367 2.57295
      vertex 7.04636 19.7517 2.81309
    endloop
  endfacet
  facet normal 0.637424 -4.14311e-08 0.770513
    outer loop
      vertex 7.33664 19.6367 2.57295
      vertex 7.04636 15.545 2.81309
      vertex 7.19702 15.4123 2.68846
    endloop
  endfacet
  facet normal 0.309019 0 0.951056
    outer loop
      vertex 8.35393 19.2339 2.09425
      vertex 8.19211 14.4271 2.14683
      vertex 8.35393 14.2223 2.09425
    endloop
  endfacet
  facet normal 0.309019 -0 0.951056
    outer loop
      vertex 7.99563 14.5883 2.21067
      vertex 8.35393 19.2339 2.09425
      vertex 7.99563 19.3758 2.21067
    endloop
  endfacet
  facet normal 0.309019 -3.54528e-09 0.951056
    outer loop
      vertex 8.35393 19.2339 2.09425
      vertex 7.99563 14.5883 2.21067
      vertex 8.19211 14.4271 2.14683
    endloop
  endfacet
  facet normal 0.425777 0 0.904828
    outer loop
      vertex 7.99563 19.3758 2.21067
      vertex 7.83657 14.7773 2.28552
      vertex 7.99563 14.5883 2.21067
    endloop
  endfacet
  facet normal 0.425778 -0 0.904828
    outer loop
      vertex 7.65474 14.933 2.37108
      vertex 7.99563 19.3758 2.21067
      vertex 7.65474 19.5108 2.37108
    endloop
  endfacet
  facet normal 0.425778 -3.63633e-08 0.904828
    outer loop
      vertex 7.99563 19.3758 2.21067
      vertex 7.65474 14.933 2.37108
      vertex 7.83657 14.7773 2.28552
    endloop
  endfacet
  facet normal 0.876307 -0 0.481754
    outer loop
      vertex 6.38552 16.2079 3.72266
      vertex 6.48936 19.9722 3.53378
      vertex 6.38552 19.9988 3.72266
    endloop
  endfacet
  facet normal 0.876307 -3.44004e-08 0.481753
    outer loop
      vertex 6.48936 19.9722 3.53378
      vertex 6.38552 16.2079 3.72266
      vertex 6.56702 19.9414 3.39252
    endloop
  endfacet
  facet normal 0.876306 7.7909e-08 0.481754
    outer loop
      vertex 6.47784 16.1289 3.55474
      vertex 6.56702 19.9414 3.39252
      vertex 6.38552 16.2079 3.72266
    endloop
  endfacet
  facet normal 0.876307 0 0.481753
    outer loop
      vertex 6.56702 19.9414 3.39252
      vertex 6.47784 16.1289 3.55474
      vertex 6.56702 16.026 3.39252
    endloop
  endfacet
  facet normal 0.929776 -0 0.368126
    outer loop
      vertex 6.24683 16.3469 4.07295
      vertex 6.38552 19.9988 3.72266
      vertex 6.24683 20.0345 4.07295
    endloop
  endfacet
  facet normal 0.929776 -9.33975e-08 0.368126
    outer loop
      vertex 6.31704 16.2893 3.89563
      vertex 6.38552 19.9988 3.72266
      vertex 6.24683 16.3469 4.07295
    endloop
  endfacet
  facet normal 0.929775 0 0.368127
    outer loop
      vertex 6.38552 19.9988 3.72266
      vertex 6.31704 16.2893 3.89563
      vertex 6.38552 16.2079 3.72266
    endloop
  endfacet
  facet normal 0.728968 -0 0.684548
    outer loop
      vertex 6.78846 15.8039 3.08773
      vertex 7.04636 19.7517 2.81309
      vertex 6.78846 19.8538 3.08773
    endloop
  endfacet
  facet normal 0.728968 -3.68973e-08 0.684547
    outer loop
      vertex 6.92121 15.6869 2.94636
      vertex 7.04636 19.7517 2.81309
      vertex 6.78846 15.8039 3.08773
    endloop
  endfacet
  facet normal 0.728968 0 0.684548
    outer loop
      vertex 7.04636 19.7517 2.81309
      vertex 6.92121 15.6869 2.94636
      vertex 7.04636 15.545 2.81309
    endloop
  endfacet
  facet normal 0.18738 0 0.982287
    outer loop
      vertex 8.724 19.0874 2.02366
      vertex 8.56945 14.0621 2.05314
      vertex 8.724 13.8288 2.02366
    endloop
  endfacet
  facet normal 0.18738 -0 0.982288
    outer loop
      vertex 8.35393 14.2223 2.09425
      vertex 8.724 19.0874 2.02366
      vertex 8.35393 19.2339 2.09425
    endloop
  endfacet
  facet normal 0.187379 2.79921e-08 0.982288
    outer loop
      vertex 8.724 19.0874 2.02366
      vertex 8.35393 14.2223 2.09425
      vertex 8.56945 14.0621 2.05314
    endloop
  endfacet
  facet normal 0.0627933 0 0.998027
    outer loop
      vertex 9.1 18.9142 2
      vertex 9.0059 13.6884 2.00592
      vertex 9.1 -0.6 2
    endloop
  endfacet
  facet normal 0.062792 -2.32953e-06 0.998027
    outer loop
      vertex 8.724 19.0874 2.02366
      vertex 9.1 18.9142 2
      vertex 8.94136 19.0014 2.00998
    endloop
  endfacet
  facet normal 0.0627931 0 0.998027
    outer loop
      vertex 9.1 18.9142 2
      vertex 8.724 19.0874 2.02366
      vertex 8.724 13.8288 2.02366
    endloop
  endfacet
  facet normal 0.062793 4.70104e-09 0.998027
    outer loop
      vertex 9.1 18.9142 2
      vertex 8.724 13.8288 2.02366
      vertex 9.0059 13.6884 2.00592
    endloop
  endfacet
  facet normal 0.0627933 0 0.998027
    outer loop
      vertex 9.1 -0.6 2
      vertex 9.0059 13.6884 2.00592
      vertex 9.0059 -0.6 2.00592
    endloop
  endfacet
  facet normal 0.535827 0 0.844328
    outer loop
      vertex 7.65474 19.5108 2.37108
      vertex 7.50357 15.1075 2.46702
      vertex 7.65474 14.933 2.37108
    endloop
  endfacet
  facet normal 0.535827 -0 0.844328
    outer loop
      vertex 7.33664 15.2533 2.57295
      vertex 7.65474 19.5108 2.37108
      vertex 7.33664 19.6367 2.57295
    endloop
  endfacet
  facet normal 0.535828 -4.20959e-08 0.844327
    outer loop
      vertex 7.65474 19.5108 2.37108
      vertex 7.33664 15.2533 2.57295
      vertex 7.50357 15.1075 2.46702
    endloop
  endfacet
  facet normal 0.968583 -0 0.248689
    outer loop
      vertex 6.15314 16.4408 4.43786
      vertex 6.24683 20.0345 4.07295
      vertex 6.15314 20.0585 4.43786
    endloop
  endfacet
  facet normal 0.968583 9.92551e-08 0.24869
    outer loop
      vertex 6.20036 16.4058 4.25393
      vertex 6.24683 20.0345 4.07295
      vertex 6.15314 16.4408 4.43786
    endloop
  endfacet
  facet normal 0.968584 0 0.248688
    outer loop
      vertex 6.24683 20.0345 4.07295
      vertex 6.20036 16.4058 4.25393
      vertex 6.24683 16.3469 4.07295
    endloop
  endfacet
  facet normal 0.809018 -0 0.587784
    outer loop
      vertex 6.56702 16.026 3.39252
      vertex 6.78846 19.8538 3.08773
      vertex 6.56702 19.9414 3.39252
    endloop
  endfacet
  facet normal 0.809017 8.21094e-08 0.587785
    outer loop
      vertex 6.68027 15.9271 3.23664
      vertex 6.78846 19.8538 3.08773
      vertex 6.56702 16.026 3.39252
    endloop
  endfacet
  facet normal 0.809019 0 0.587783
    outer loop
      vertex 6.78846 19.8538 3.08773
      vertex 6.68027 15.9271 3.23664
      vertex 6.78846 15.8039 3.08773
    endloop
  endfacet
  facet normal -0 0 1
    outer loop
      vertex -11.2524 17.7309 2
      vertex -9 -0.6 2
      vertex -9 18.9691 2
    endloop
  endfacet
  facet normal -0 0 1
    outer loop
      vertex -13.3859 16.1808 2
      vertex -9 -0.6 2
      vertex -11.2524 17.7309 2
    endloop
  endfacet
  facet normal -0 0 1
    outer loop
      vertex -15.3083 14.3755 2
      vertex -9 -0.6 2
      vertex -13.3859 16.1808 2
    endloop
  endfacet
  facet normal -0 0 1
    outer loop
      vertex -16.9894 12.3435 2
      vertex -9 -0.6 2
      vertex -15.3083 14.3755 2
    endloop
  endfacet
  facet normal -0 0 1
    outer loop
      vertex -18.4024 10.1168 2
      vertex -9 -0.6 2
      vertex -16.9894 12.3435 2
    endloop
  endfacet
  facet normal -0 0 1
    outer loop
      vertex -19.5253 7.73061 2
      vertex -9 -0.6 2
      vertex -18.4024 10.1168 2
    endloop
  endfacet
  facet normal -0 0 1
    outer loop
      vertex -20.3402 5.22249 2
      vertex -9 -0.6 2
      vertex -19.5253 7.73061 2
    endloop
  endfacet
  facet normal -0 0 1
    outer loop
      vertex -20.8344 2.632 2
      vertex -9 -0.6 2
      vertex -20.3402 5.22249 2
    endloop
  endfacet
  facet normal -0 0 1
    outer loop
      vertex -21 0 2
      vertex -9 -0.6 2
      vertex -20.8344 2.632 2
    endloop
  endfacet
  facet normal 0 0 1
    outer loop
      vertex -9 -0.6 2
      vertex -21 0 2
      vertex -20.9623 -0.6 2
    endloop
  endfacet
  facet normal 0 1 -0
    outer loop
      vertex -9 -0.6 2
      vertex -20.9623 -0.6 2.00592
      vertex -8.9059 -0.6 2.00592
    endloop
  endfacet
  facet normal 0 1 0
    outer loop
      vertex -20.9623 -0.6 2.00592
      vertex -9 -0.6 2
      vertex -20.9623 -0.6 2
    endloop
  endfacet
  facet normal -0.0627931 0 0.998027
    outer loop
      vertex -9 18.9691 2
      vertex -8.624 13.8288 2.02366
      vertex -8.624 19.127 2.02366
    endloop
  endfacet
  facet normal -0.062788 -1.21054e-05 0.998027
    outer loop
      vertex -9 18.9691 2
      vertex -8.624 19.127 2.02366
      vertex -8.94136 19.0014 2.00369
    endloop
  endfacet
  facet normal -0.062793 4.65253e-09 0.998027
    outer loop
      vertex -8.624 13.8288 2.02366
      vertex -9 18.9691 2
      vertex -8.9059 13.6884 2.00592
    endloop
  endfacet
  facet normal -0.0627933 0 0.998027
    outer loop
      vertex -9 -0.6 2
      vertex -8.9059 13.6884 2.00592
      vertex -9 18.9691 2
    endloop
  endfacet
  facet normal -0.0627933 0 0.998027
    outer loop
      vertex -8.9059 13.6884 2.00592
      vertex -9 -0.6 2
      vertex -8.9059 -0.6 2.00592
    endloop
  endfacet
  facet normal -0.992115 0 0.125333
    outer loop
      vertex -6.05314 20.0842 4.43786
      vertex -6.00592 16.4881 4.81163
      vertex -6.00592 20.0963 4.81163
    endloop
  endfacet
  facet normal -0.992115 7.96048e-08 0.125334
    outer loop
      vertex -6.05314 20.0842 4.43786
      vertex -6.02962 16.4763 4.624
      vertex -6.00592 16.4881 4.81163
    endloop
  endfacet
  facet normal -0.992115 0 0.125332
    outer loop
      vertex -6.02962 16.4763 4.624
      vertex -6.05314 20.0842 4.43786
      vertex -6.05314 16.4408 4.43786
    endloop
  endfacet
  facet normal -1 0 0
    outer loop
      vertex -6.00592 20.0963 4.81163
      vertex -6.00592 16.5 5
      vertex -6.00592 20.0963 34
    endloop
  endfacet
  facet normal -1 0 -0
    outer loop
      vertex -6.00592 16.5 5
      vertex -6.00592 20.0963 4.81163
      vertex -6.00592 16.4881 4.81163
    endloop
  endfacet
  facet normal -1 -0 0
    outer loop
      vertex -6.00592 20.0963 34
      vertex -6.00592 16.5 5
      vertex -6.00592 16.5 34
    endloop
  endfacet
  facet normal -0.968583 0 0.248689
    outer loop
      vertex -6.14683 20.0601 4.07295
      vertex -6.05314 16.4408 4.43786
      vertex -6.05314 20.0842 4.43786
    endloop
  endfacet
  facet normal -0.968583 9.85643e-08 0.24869
    outer loop
      vertex -6.14683 20.0601 4.07295
      vertex -6.10036 16.4058 4.25393
      vertex -6.05314 16.4408 4.43786
    endloop
  endfacet
  facet normal -0.968584 0 0.248688
    outer loop
      vertex -6.10036 16.4058 4.25393
      vertex -6.14683 20.0601 4.07295
      vertex -6.14683 16.3469 4.07295
    endloop
  endfacet
  facet normal -0.809018 3.42984e-06 0.587783
    outer loop
      vertex -6.68846 19.8934 3.08773
      vertex -6.46702 19.9779 3.39252
      vertex -6.48936 19.9722 3.36177
    endloop
  endfacet
  facet normal -0.809018 0 0.587784
    outer loop
      vertex -6.68846 19.8934 3.08773
      vertex -6.46702 16.026 3.39252
      vertex -6.46702 19.9779 3.39252
    endloop
  endfacet
  facet normal -0.809017 8.13088e-08 0.587785
    outer loop
      vertex -6.68846 19.8934 3.08773
      vertex -6.58027 15.9271 3.23664
      vertex -6.46702 16.026 3.39252
    endloop
  endfacet
  facet normal -0.809019 0 0.587783
    outer loop
      vertex -6.58027 15.9271 3.23664
      vertex -6.68846 19.8934 3.08773
      vertex -6.68846 15.8039 3.08773
    endloop
  endfacet
  facet normal -0.425778 0 0.904828
    outer loop
      vertex -7.89563 19.4154 2.21067
      vertex -7.55474 14.933 2.37108
      vertex -7.55474 19.5504 2.37108
    endloop
  endfacet
  facet normal -0.425778 -3.60618e-08 0.904828
    outer loop
      vertex -7.55474 14.933 2.37108
      vertex -7.89563 19.4154 2.21067
      vertex -7.73657 14.7773 2.28552
    endloop
  endfacet
  facet normal -0.425777 0 0.904828
    outer loop
      vertex -7.73657 14.7773 2.28552
      vertex -7.89563 19.4154 2.21067
      vertex -7.89563 14.5883 2.21067
    endloop
  endfacet
  facet normal -0.309019 0 0.951056
    outer loop
      vertex -8.25393 19.2735 2.09425
      vertex -7.89563 14.5883 2.21067
      vertex -7.89563 19.4154 2.21067
    endloop
  endfacet
  facet normal -0.309019 -3.51709e-09 0.951056
    outer loop
      vertex -7.89563 14.5883 2.21067
      vertex -8.25393 19.2735 2.09425
      vertex -8.09211 14.4271 2.14683
    endloop
  endfacet
  facet normal -0.309019 0 0.951056
    outer loop
      vertex -8.09211 14.4271 2.14683
      vertex -8.25393 19.2735 2.09425
      vertex -8.25393 14.2223 2.09425
    endloop
  endfacet
  facet normal -0.728968 0 0.684548
    outer loop
      vertex -6.94636 19.7912 2.81309
      vertex -6.68846 15.8039 3.08773
      vertex -6.68846 19.8934 3.08773
    endloop
  endfacet
  facet normal -0.728968 -3.65507e-08 0.684547
    outer loop
      vertex -6.94636 19.7912 2.81309
      vertex -6.82121 15.6869 2.94636
      vertex -6.68846 15.8039 3.08773
    endloop
  endfacet
  facet normal -0.728968 0 0.684548
    outer loop
      vertex -6.82121 15.6869 2.94636
      vertex -6.94636 19.7912 2.81309
      vertex -6.94636 15.545 2.81309
    endloop
  endfacet
  facet normal -0.876307 0 0.481754
    outer loop
      vertex -6.46702 19.9779 3.39252
      vertex -6.28552 16.2079 3.72266
      vertex -6.28552 20.0245 3.72266
    endloop
  endfacet
  facet normal -0.876306 7.71849e-08 0.481754
    outer loop
      vertex -6.46702 19.9779 3.39252
      vertex -6.37784 16.1289 3.55474
      vertex -6.28552 16.2079 3.72266
    endloop
  endfacet
  facet normal -0.876307 0 0.481753
    outer loop
      vertex -6.37784 16.1289 3.55474
      vertex -6.46702 19.9779 3.39252
      vertex -6.46702 16.026 3.39252
    endloop
  endfacet
  facet normal -0.929776 0 0.368126
    outer loop
      vertex -6.28552 20.0245 3.72266
      vertex -6.14683 16.3469 4.07295
      vertex -6.14683 20.0601 4.07295
    endloop
  endfacet
  facet normal -0.929776 -9.2765e-08 0.368126
    outer loop
      vertex -6.28552 20.0245 3.72266
      vertex -6.21704 16.2893 3.89563
      vertex -6.14683 16.3469 4.07295
    endloop
  endfacet
  facet normal -0.929775 0 0.368127
    outer loop
      vertex -6.21704 16.2893 3.89563
      vertex -6.28552 20.0245 3.72266
      vertex -6.28552 16.2079 3.72266
    endloop
  endfacet
  facet normal -0.637424 0 0.770513
    outer loop
      vertex -7.23664 19.6763 2.57295
      vertex -6.94636 15.545 2.81309
      vertex -6.94636 19.7912 2.81309
    endloop
  endfacet
  facet normal -0.637424 -4.10572e-08 0.770513
    outer loop
      vertex -6.94636 15.545 2.81309
      vertex -7.23664 19.6763 2.57295
      vertex -7.09702 15.4123 2.68846
    endloop
  endfacet
  facet normal -0.637424 0 0.770514
    outer loop
      vertex -7.09702 15.4123 2.68846
      vertex -7.23664 19.6763 2.57295
      vertex -7.23664 15.2533 2.57295
    endloop
  endfacet
  facet normal -0.18738 0 0.982288
    outer loop
      vertex -8.624 19.127 2.02366
      vertex -8.25393 14.2223 2.09425
      vertex -8.25393 19.2735 2.09425
    endloop
  endfacet
  facet normal -0.187379 2.77782e-08 0.982288
    outer loop
      vertex -8.25393 14.2223 2.09425
      vertex -8.624 19.127 2.02366
      vertex -8.46945 14.0621 2.05314
    endloop
  endfacet
  facet normal -0.18738 0 0.982287
    outer loop
      vertex -8.46945 14.0621 2.05314
      vertex -8.624 19.127 2.02366
      vertex -8.624 13.8288 2.02366
    endloop
  endfacet
  facet normal -0.535827 0 0.844328
    outer loop
      vertex -7.55474 19.5504 2.37108
      vertex -7.23664 15.2533 2.57295
      vertex -7.23664 19.6763 2.57295
    endloop
  endfacet
  facet normal -0.535828 -4.17316e-08 0.844327
    outer loop
      vertex -7.23664 15.2533 2.57295
      vertex -7.55474 19.5504 2.37108
      vertex -7.40357 15.1075 2.46702
    endloop
  endfacet
  facet normal -0.535827 0 0.844328
    outer loop
      vertex -7.40357 15.1075 2.46702
      vertex -7.55474 19.5504 2.37108
      vertex -7.55474 14.933 2.37108
    endloop
  endfacet
  facet normal 0 -1 0
    outer loop
      vertex 3.5 16.5 33
      vertex -6.00592 16.5 34
      vertex -3.5 16.5 33
    endloop
  endfacet
  facet normal 0 -1 0
    outer loop
      vertex -6.00592 16.5 34
      vertex -3.5 16.5 13
      vertex -3.5 16.5 33
    endloop
  endfacet
  facet normal 0 -1 -0
    outer loop
      vertex -3.5 16.5 13
      vertex -6.00592 16.5 5
      vertex 3.5 16.5 13
    endloop
  endfacet
  facet normal 0 -1 0
    outer loop
      vertex -6.00592 16.5 5
      vertex -3.5 16.5 13
      vertex -6.00592 16.5 34
    endloop
  endfacet
  facet normal 0 -1 0
    outer loop
      vertex -6.00592 16.5 34
      vertex 3.5 16.5 33
      vertex 6.10592 16.5 34
    endloop
  endfacet
  facet normal 0 -1 0
    outer loop
      vertex 3.5 16.5 13
      vertex 6.10592 16.5 34
      vertex 3.5 16.5 33
    endloop
  endfacet
  facet normal 0 -1 0
    outer loop
      vertex 3.5 16.5 13
      vertex 6.10592 16.5 5
      vertex 6.10592 16.5 34
    endloop
  endfacet
  facet normal 0 -1 0
    outer loop
      vertex 6.10592 16.5 5
      vertex 3.5 16.5 13
      vertex -6.00592 16.5 5
    endloop
  endfacet
  facet normal 0 -0.982287 0.187383
    outer loop
      vertex -6.05314 16.4408 4.43786
      vertex 6.12962 16.4763 4.624
      vertex -6.02962 16.4763 4.624
    endloop
  endfacet
  facet normal 0 -0.982287 0.187383
    outer loop
      vertex -6.05314 16.4408 4.43786
      vertex 6.15314 16.4408 4.43786
      vertex 6.12962 16.4763 4.624
    endloop
  endfacet
  facet normal 0 -0.982289 0.187371
    outer loop
      vertex -6.10036 16.4058 4.25393
      vertex 6.15314 16.4408 4.43786
      vertex -6.05314 16.4408 4.43786
    endloop
  endfacet
  facet normal 0 -0.982289 0.187371
    outer loop
      vertex 6.15314 16.4408 4.43786
      vertex -6.10036 16.4058 4.25393
      vertex 6.20036 16.4058 4.25393
    endloop
  endfacet
  facet normal 0 -0.125333 0.992115
    outer loop
      vertex -8.46945 14.0621 2.05314
      vertex 8.724 13.8288 2.02366
      vertex 8.56945 14.0621 2.05314
    endloop
  endfacet
  facet normal 0 -0.125333 0.992115
    outer loop
      vertex -8.624 13.8288 2.02366
      vertex 8.724 13.8288 2.02366
      vertex -8.46945 14.0621 2.05314
    endloop
  endfacet
  facet normal 0 -0.125333 0.992115
    outer loop
      vertex 8.724 13.8288 2.02366
      vertex -8.624 13.8288 2.02366
      vertex 9.0059 13.6884 2.00592
    endloop
  endfacet
  facet normal 0 -0.125333 0.992115
    outer loop
      vertex 9.0059 13.6884 2.00592
      vertex -8.624 13.8288 2.02366
      vertex -8.9059 13.6884 2.00592
    endloop
  endfacet
  facet normal 0 -0.770512 0.637425
    outer loop
      vertex -6.68846 15.8039 3.08773
      vertex 6.68027 15.9271 3.23664
      vertex -6.58027 15.9271 3.23664
    endloop
  endfacet
  facet normal 0 -0.770512 0.637425
    outer loop
      vertex -6.68846 15.8039 3.08773
      vertex 6.78846 15.8039 3.08773
      vertex 6.68027 15.9271 3.23664
    endloop
  endfacet
  facet normal 0 -0.770514 0.637422
    outer loop
      vertex -6.82121 15.6869 2.94636
      vertex 6.78846 15.8039 3.08773
      vertex -6.68846 15.8039 3.08773
    endloop
  endfacet
  facet normal 0 -0.770514 0.637422
    outer loop
      vertex 6.78846 15.8039 3.08773
      vertex -6.82121 15.6869 2.94636
      vertex 6.92121 15.6869 2.94636
    endloop
  endfacet
  facet normal 0 0 1
    outer loop
      vertex -8.9059 -0.6 2.00592
      vertex 9.0059 -0.6 2.00592
      vertex 9.0059 13.6884 2.00592
    endloop
  endfacet
  facet normal 0 -0 1
    outer loop
      vertex 1.3186 -20.9586 2.00592
      vertex 9.0059 -0.6 2.00592
      vertex -8.9059 -0.6 2.00592
    endloop
  endfacet
  facet normal 0 0 1
    outer loop
      vertex 9.0059 -0.6 2.00592
      vertex 6.48936 -19.9722 2.00592
      vertex 8.94136 -19.0014 2.00592
    endloop
  endfacet
  facet normal 0 0 1
    outer loop
      vertex 9.0059 -0.6 2.00592
      vertex 3.93501 -20.628 2.00592
      vertex 6.48936 -19.9722 2.00592
    endloop
  endfacet
  facet normal 0 0 1
    outer loop
      vertex 9.0059 -0.6 2.00592
      vertex 1.3186 -20.9586 2.00592
      vertex 3.93501 -20.628 2.00592
    endloop
  endfacet
  facet normal 0 0 1
    outer loop
      vertex 1.3186 -20.9586 2.00592
      vertex -8.9059 -0.6 2.00592
      vertex -1.3186 -20.9586 2.00592
    endloop
  endfacet
  facet normal 0 0 1
    outer loop
      vertex -1.3186 -20.9586 2.00592
      vertex -8.9059 -0.6 2.00592
      vertex -3.93501 -20.628 2.00592
    endloop
  endfacet
  facet normal 0 0 1
    outer loop
      vertex -8.9059 -0.6 2.00592
      vertex 9.0059 13.6884 2.00592
      vertex -8.9059 13.6884 2.00592
    endloop
  endfacet
  facet normal 0 0 1
    outer loop
      vertex -3.93501 -20.628 2.00592
      vertex -8.9059 -0.6 2.00592
      vertex -6.48936 -19.9722 2.00592
    endloop
  endfacet
  facet normal 0 0 1
    outer loop
      vertex -8.9059 -0.6 2.00592
      vertex -8.94136 -19.0014 2.00592
      vertex -6.48936 -19.9722 2.00592
    endloop
  endfacet
  facet normal 0 0 1
    outer loop
      vertex -8.9059 -0.6 2.00592
      vertex -11.2524 -17.7309 2.00592
      vertex -8.94136 -19.0014 2.00592
    endloop
  endfacet
  facet normal 0 0 1
    outer loop
      vertex -8.9059 -0.6 2.00592
      vertex -13.3859 -16.1808 2.00592
      vertex -11.2524 -17.7309 2.00592
    endloop
  endfacet
  facet normal 0 0 1
    outer loop
      vertex -8.9059 -0.6 2.00592
      vertex -15.3083 -14.3755 2.00592
      vertex -13.3859 -16.1808 2.00592
    endloop
  endfacet
  facet normal 0 0 1
    outer loop
      vertex -8.9059 -0.6 2.00592
      vertex -16.9894 -12.3435 2.00592
      vertex -15.3083 -14.3755 2.00592
    endloop
  endfacet
  facet normal 0 0 1
    outer loop
      vertex -8.9059 -0.6 2.00592
      vertex -18.4024 -10.1168 2.00592
      vertex -16.9894 -12.3435 2.00592
    endloop
  endfacet
  facet normal 0 0 1
    outer loop
      vertex -8.9059 -0.6 2.00592
      vertex -19.5253 -7.73061 2.00592
      vertex -18.4024 -10.1168 2.00592
    endloop
  endfacet
  facet normal 0 0 1
    outer loop
      vertex -8.9059 -0.6 2.00592
      vertex -20.3402 -5.22249 2.00592
      vertex -19.5253 -7.73061 2.00592
    endloop
  endfacet
  facet normal 0 0 1
    outer loop
      vertex -8.9059 -0.6 2.00592
      vertex -20.8344 -2.632 2.00592
      vertex -20.3402 -5.22249 2.00592
    endloop
  endfacet
  facet normal 0 -0 1
    outer loop
      vertex -20.8344 -2.632 2.00592
      vertex -8.9059 -0.6 2.00592
      vertex -20.9623 -0.6 2.00592
    endloop
  endfacet
  facet normal -0 0 1
    outer loop
      vertex 9.0059 -0.6 2.00592
      vertex 20.8344 -2.632 2.00592
      vertex 20.9623 -0.6 2.00592
    endloop
  endfacet
  facet normal 0 0 1
    outer loop
      vertex 20.8344 -2.632 2.00592
      vertex 9.0059 -0.6 2.00592
      vertex 20.3402 -5.22249 2.00592
    endloop
  endfacet
  facet normal 0 0 1
    outer loop
      vertex 20.3402 -5.22249 2.00592
      vertex 9.0059 -0.6 2.00592
      vertex 19.5253 -7.73061 2.00592
    endloop
  endfacet
  facet normal 0 0 1
    outer loop
      vertex 19.5253 -7.73061 2.00592
      vertex 9.0059 -0.6 2.00592
      vertex 18.4024 -10.1168 2.00592
    endloop
  endfacet
  facet normal 0 0 1
    outer loop
      vertex 18.4024 -10.1168 2.00592
      vertex 9.0059 -0.6 2.00592
      vertex 16.9894 -12.3435 2.00592
    endloop
  endfacet
  facet normal 0 0 1
    outer loop
      vertex 16.9894 -12.3435 2.00592
      vertex 9.0059 -0.6 2.00592
      vertex 15.3083 -14.3755 2.00592
    endloop
  endfacet
  facet normal 0 0 1
    outer loop
      vertex 15.3083 -14.3755 2.00592
      vertex 9.0059 -0.6 2.00592
      vertex 13.3859 -16.1808 2.00592
    endloop
  endfacet
  facet normal 0 0 1
    outer loop
      vertex 13.3859 -16.1808 2.00592
      vertex 9.0059 -0.6 2.00592
      vertex 11.2524 -17.7309 2.00592
    endloop
  endfacet
  facet normal 0 0 1
    outer loop
      vertex 11.2524 -17.7309 2.00592
      vertex 9.0059 -0.6 2.00592
      vertex 8.94136 -19.0014 2.00592
    endloop
  endfacet
  facet normal 0 -0.951055 0.309022
    outer loop
      vertex -6.14683 16.3469 4.07295
      vertex 6.20036 16.4058 4.25393
      vertex -6.10036 16.4058 4.25393
    endloop
  endfacet
  facet normal 0 -0.951055 0.309022
    outer loop
      vertex -6.14683 16.3469 4.07295
      vertex 6.24683 16.3469 4.07295
      vertex 6.20036 16.4058 4.25393
    endloop
  endfacet
  facet normal 0 -0.951057 0.309016
    outer loop
      vertex -6.21704 16.2893 3.89563
      vertex 6.24683 16.3469 4.07295
      vertex -6.14683 16.3469 4.07295
    endloop
  endfacet
  facet normal 0 -0.951057 0.309016
    outer loop
      vertex 6.24683 16.3469 4.07295
      vertex -6.21704 16.2893 3.89563
      vertex 6.31704 16.2893 3.89563
    endloop
  endfacet
  facet normal 0 -0.481754 0.876306
    outer loop
      vertex -7.40357 15.1075 2.46702
      vertex 7.65474 14.933 2.37108
      vertex 7.50357 15.1075 2.46702
    endloop
  endfacet
  facet normal 0 -0.481754 0.876306
    outer loop
      vertex -7.55474 14.933 2.37108
      vertex 7.65474 14.933 2.37108
      vertex -7.40357 15.1075 2.46702
    endloop
  endfacet
  facet normal 0 -0.481753 0.876307
    outer loop
      vertex 7.65474 14.933 2.37108
      vertex -7.55474 14.933 2.37108
      vertex 7.83657 14.7773 2.28552
    endloop
  endfacet
  facet normal 0 -0.481753 0.876307
    outer loop
      vertex 7.83657 14.7773 2.28552
      vertex -7.55474 14.933 2.37108
      vertex -7.73657 14.7773 2.28552
    endloop
  endfacet
  facet normal 0 -0.904828 0.425778
    outer loop
      vertex -6.28552 16.2079 3.72266
      vertex 6.31704 16.2893 3.89563
      vertex -6.21704 16.2893 3.89563
    endloop
  endfacet
  facet normal 0 -0.904828 0.425778
    outer loop
      vertex -6.28552 16.2079 3.72266
      vertex 6.38552 16.2079 3.72266
      vertex 6.31704 16.2893 3.89563
    endloop
  endfacet
  facet normal 0 -0.904826 0.425782
    outer loop
      vertex -6.37784 16.1289 3.55474
      vertex 6.38552 16.2079 3.72266
      vertex -6.28552 16.2079 3.72266
    endloop
  endfacet
  facet normal 0 -0.904826 0.425782
    outer loop
      vertex 6.38552 16.2079 3.72266
      vertex -6.37784 16.1289 3.55474
      vertex 6.47784 16.1289 3.55474
    endloop
  endfacet
  facet normal 0 -0.368126 0.929776
    outer loop
      vertex -7.73657 14.7773 2.28552
      vertex 7.99563 14.5883 2.21067
      vertex 7.83657 14.7773 2.28552
    endloop
  endfacet
  facet normal 0 -0.368126 0.929776
    outer loop
      vertex -7.89563 14.5883 2.21067
      vertex 7.99563 14.5883 2.21067
      vertex -7.73657 14.7773 2.28552
    endloop
  endfacet
  facet normal 0 -0.368127 0.929776
    outer loop
      vertex 7.99563 14.5883 2.21067
      vertex -7.89563 14.5883 2.21067
      vertex 8.19211 14.4271 2.14683
    endloop
  endfacet
  facet normal 0 -0.368127 0.929776
    outer loop
      vertex 8.19211 14.4271 2.14683
      vertex -7.89563 14.5883 2.21067
      vertex -8.09211 14.4271 2.14683
    endloop
  endfacet
  facet normal 0 -0.684547 0.728969
    outer loop
      vertex -6.82121 15.6869 2.94636
      vertex 7.04636 15.545 2.81309
      vertex 6.92121 15.6869 2.94636
    endloop
  endfacet
  facet normal 0 -0.684547 0.728969
    outer loop
      vertex -6.94636 15.545 2.81309
      vertex 7.04636 15.545 2.81309
      vertex -6.82121 15.6869 2.94636
    endloop
  endfacet
  facet normal 0 -0.684549 0.728967
    outer loop
      vertex 7.04636 15.545 2.81309
      vertex -6.94636 15.545 2.81309
      vertex 7.19702 15.4123 2.68846
    endloop
  endfacet
  facet normal 0 -0.684549 0.728967
    outer loop
      vertex 7.19702 15.4123 2.68846
      vertex -6.94636 15.545 2.81309
      vertex -7.09702 15.4123 2.68846
    endloop
  endfacet
  facet normal 0 -0.998026 0.0627957
    outer loop
      vertex -6.00592 16.4881 4.81163
      vertex 6.10592 16.5 5
      vertex -6.00592 16.5 5
    endloop
  endfacet
  facet normal 0 -0.998026 0.0627957
    outer loop
      vertex -6.00592 16.4881 4.81163
      vertex 6.10592 16.4881 4.81163
      vertex 6.10592 16.5 5
    endloop
  endfacet
  facet normal 0 -0.998027 0.0627904
    outer loop
      vertex -6.02962 16.4763 4.624
      vertex 6.10592 16.4881 4.81163
      vertex -6.00592 16.4881 4.81163
    endloop
  endfacet
  facet normal 0 -0.998027 0.0627904
    outer loop
      vertex 6.10592 16.4881 4.81163
      vertex -6.02962 16.4763 4.624
      vertex 6.12962 16.4763 4.624
    endloop
  endfacet
  facet normal 0 -0.844328 0.535826
    outer loop
      vertex -6.46702 16.026 3.39252
      vertex 6.47784 16.1289 3.55474
      vertex -6.37784 16.1289 3.55474
    endloop
  endfacet
  facet normal 0 -0.844328 0.535826
    outer loop
      vertex -6.46702 16.026 3.39252
      vertex 6.56702 16.026 3.39252
      vertex 6.47784 16.1289 3.55474
    endloop
  endfacet
  facet normal 0 -0.844327 0.535828
    outer loop
      vertex -6.58027 15.9271 3.23664
      vertex 6.56702 16.026 3.39252
      vertex -6.46702 16.026 3.39252
    endloop
  endfacet
  facet normal 0 -0.844327 0.535828
    outer loop
      vertex 6.56702 16.026 3.39252
      vertex -6.58027 15.9271 3.23664
      vertex 6.68027 15.9271 3.23664
    endloop
  endfacet
  facet normal 0 -0.248689 0.968584
    outer loop
      vertex -8.09211 14.4271 2.14683
      vertex 8.35393 14.2223 2.09425
      vertex 8.19211 14.4271 2.14683
    endloop
  endfacet
  facet normal 0 -0.248689 0.968584
    outer loop
      vertex -8.25393 14.2223 2.09425
      vertex 8.35393 14.2223 2.09425
      vertex -8.09211 14.4271 2.14683
    endloop
  endfacet
  facet normal 0 -0.248689 0.968583
    outer loop
      vertex 8.35393 14.2223 2.09425
      vertex -8.25393 14.2223 2.09425
      vertex 8.56945 14.0621 2.05314
    endloop
  endfacet
  facet normal 0 -0.248689 0.968583
    outer loop
      vertex 8.56945 14.0621 2.05314
      vertex -8.25393 14.2223 2.09425
      vertex -8.46945 14.0621 2.05314
    endloop
  endfacet
  facet normal 0 -0.587783 0.809018
    outer loop
      vertex -7.09702 15.4123 2.68846
      vertex 7.33664 15.2533 2.57295
      vertex 7.19702 15.4123 2.68846
    endloop
  endfacet
  facet normal 0 -0.587783 0.809018
    outer loop
      vertex -7.23664 15.2533 2.57295
      vertex 7.33664 15.2533 2.57295
      vertex -7.09702 15.4123 2.68846
    endloop
  endfacet
  facet normal 0 -0.587785 0.809017
    outer loop
      vertex 7.33664 15.2533 2.57295
      vertex -7.23664 15.2533 2.57295
      vertex 7.50357 15.1075 2.46702
    endloop
  endfacet
  facet normal 0 -0.587785 0.809017
    outer loop
      vertex 7.50357 15.1075 2.46702
      vertex -7.23664 15.2533 2.57295
      vertex -7.40357 15.1075 2.46702
    endloop
  endfacet
  facet normal 0.998027 0.0627909 0
    outer loop
      vertex 21 0 2
      vertex 20.8344 2.632 0
      vertex 20.8344 2.632 2
    endloop
  endfacet
  facet normal 0.998027 0.0627909 0
    outer loop
      vertex 20.8344 2.632 0
      vertex 21 0 2
      vertex 21 0 0
    endloop
  endfacet
  facet normal -0.998027 0.0627909 0
    outer loop
      vertex -21 0 0
      vertex -20.8344 2.632 2
      vertex -20.8344 2.632 0
    endloop
  endfacet
  facet normal -0.998027 0.0627909 0
    outer loop
      vertex -20.8344 2.632 2
      vertex -21 0 0
      vertex -21 0 2
    endloop
  endfacet
  facet normal 0 1 -0
    outer loop
      vertex 1.3186 20.9586 0
      vertex -1.3186 20.9586 34
      vertex 1.3186 20.9586 34
    endloop
  endfacet
  facet normal 0 1 0
    outer loop
      vertex -1.3186 20.9586 34
      vertex 1.3186 20.9586 0
      vertex -1.3186 20.9586 0
    endloop
  endfacet
  facet normal 0 -1 0
    outer loop
      vertex -1.3186 -20.9586 0
      vertex 1.3186 -20.9586 2.00592
      vertex -1.3186 -20.9586 2.00592
    endloop
  endfacet
  facet normal 0 -1 -0
    outer loop
      vertex 1.3186 -20.9586 2.00592
      vertex -1.3186 -20.9586 0
      vertex 1.3186 -20.9586 0
    endloop
  endfacet
  facet normal 0.684547 0.728968 -0
    outer loop
      vertex 15.3083 14.3755 0
      vertex 13.3859 16.1808 2
      vertex 15.3083 14.3755 2
    endloop
  endfacet
  facet normal 0.684547 0.728968 0
    outer loop
      vertex 13.3859 16.1808 2
      vertex 15.3083 14.3755 0
      vertex 13.3859 16.1808 0
    endloop
  endfacet
  facet normal -0.684547 0.728968 0
    outer loop
      vertex -13.3859 16.1808 0
      vertex -15.3083 14.3755 2
      vertex -13.3859 16.1808 2
    endloop
  endfacet
  facet normal -0.684547 0.728968 0
    outer loop
      vertex -15.3083 14.3755 2
      vertex -13.3859 16.1808 0
      vertex -15.3083 14.3755 0
    endloop
  endfacet
  facet normal -0.368131 0.929774 0
    outer loop
      vertex -6.48936 19.9722 0
      vertex -6.68846 19.8934 3.08773
      vertex -6.48936 19.9722 3.36177
    endloop
  endfacet
  facet normal -0.36812 0.929778 8.02803e-07
    outer loop
      vertex -6.48936 19.9722 0
      vertex -6.94636 19.7912 2.81309
      vertex -6.68846 19.8934 3.08773
    endloop
  endfacet
  facet normal -0.368127 0.929776 -4.31754e-07
    outer loop
      vertex -6.48936 19.9722 0
      vertex -7.23664 19.6763 2.57295
      vertex -6.94636 19.7912 2.81309
    endloop
  endfacet
  facet normal -0.368124 0.929777 4.78935e-07
    outer loop
      vertex -6.48936 19.9722 0
      vertex -7.55474 19.5504 2.37108
      vertex -7.23664 19.6763 2.57295
    endloop
  endfacet
  facet normal -0.368126 0.929776 -3.9809e-07
    outer loop
      vertex -6.48936 19.9722 0
      vertex -7.89563 19.4154 2.21067
      vertex -7.55474 19.5504 2.37108
    endloop
  endfacet
  facet normal -0.368122 0.929778 2.79909e-06
    outer loop
      vertex -6.48936 19.9722 0
      vertex -8.25393 19.2735 2.09425
      vertex -7.89563 19.4154 2.21067
    endloop
  endfacet
  facet normal -0.368125 0.929776 -2.46602e-07
    outer loop
      vertex -8.94136 19.0014 0
      vertex -8.25393 19.2735 2.09425
      vertex -6.48936 19.9722 0
    endloop
  endfacet
  facet normal -0.368128 0.929775 1.083e-06
    outer loop
      vertex -8.25393 19.2735 2.09425
      vertex -8.94136 19.0014 0
      vertex -8.624 19.127 2.02366
    endloop
  endfacet
  facet normal -0.368122 0.929777 0
    outer loop
      vertex -8.624 19.127 2.02366
      vertex -8.94136 19.0014 0
      vertex -8.94136 19.0014 2.00369
    endloop
  endfacet
  facet normal 0.844328 -0.535827 0
    outer loop
      vertex 16.9894 -12.3435 2.00592
      vertex 18.4024 -10.1168 0
      vertex 18.4024 -10.1168 2.00592
    endloop
  endfacet
  facet normal 0.844328 -0.535827 0
    outer loop
      vertex 18.4024 -10.1168 0
      vertex 16.9894 -12.3435 2.00592
      vertex 16.9894 -12.3435 0
    endloop
  endfacet
  facet normal 0.904827 0.42578 0
    outer loop
      vertex 19.5253 7.73061 2
      vertex 18.4024 10.1168 0
      vertex 18.4024 10.1168 2
    endloop
  endfacet
  facet normal 0.904827 0.42578 0
    outer loop
      vertex 18.4024 10.1168 0
      vertex 19.5253 7.73061 2
      vertex 19.5253 7.73061 0
    endloop
  endfacet
  facet normal 0.982287 0.187381 0
    outer loop
      vertex 20.8344 2.632 2
      vertex 20.3402 5.22249 0
      vertex 20.3402 5.22249 2
    endloop
  endfacet
  facet normal 0.982287 0.187381 0
    outer loop
      vertex 20.3402 5.22249 0
      vertex 20.8344 2.632 2
      vertex 20.8344 2.632 0
    endloop
  endfacet
  facet normal 0.368128 0.929775 -0
    outer loop
      vertex 8.94136 19.0014 0
      vertex 8.724 19.0874 2.02366
      vertex 8.94136 19.0014 2.00998
    endloop
  endfacet
  facet normal 0.368124 0.929777 -4.76399e-07
    outer loop
      vertex 8.94136 19.0014 0
      vertex 8.35393 19.2339 2.09425
      vertex 8.724 19.0874 2.02366
    endloop
  endfacet
  facet normal 0.368125 0.929776 -7.22812e-08
    outer loop
      vertex 8.94136 19.0014 0
      vertex 7.99563 19.3758 2.21067
      vertex 8.35393 19.2339 2.09425
    endloop
  endfacet
  facet normal 0.368125 0.929776 -2.44159e-07
    outer loop
      vertex 6.48936 19.9722 0
      vertex 7.99563 19.3758 2.21067
      vertex 8.94136 19.0014 0
    endloop
  endfacet
  facet normal 0.368122 0.929777 1.67442e-06
    outer loop
      vertex 7.99563 19.3758 2.21067
      vertex 6.48936 19.9722 0
      vertex 7.65474 19.5108 2.37108
    endloop
  endfacet
  facet normal 0.368124 0.929777 5.37803e-07
    outer loop
      vertex 7.65474 19.5108 2.37108
      vertex 6.48936 19.9722 0
      vertex 7.33664 19.6367 2.57295
    endloop
  endfacet
  facet normal 0.368127 0.929776 -4.71595e-07
    outer loop
      vertex 7.33664 19.6367 2.57295
      vertex 6.48936 19.9722 0
      vertex 7.04636 19.7517 2.81309
    endloop
  endfacet
  facet normal 0.368121 0.929778 9.87609e-07
    outer loop
      vertex 7.04636 19.7517 2.81309
      vertex 6.48936 19.9722 0
      vertex 6.78846 19.8538 3.08773
    endloop
  endfacet
  facet normal 0.368128 0.929775 0
    outer loop
      vertex 6.56702 19.9414 3.39252
      vertex 6.48936 19.9722 0
      vertex 6.48936 19.9722 3.53378
    endloop
  endfacet
  facet normal 0.36813 0.929774 -3.47975e-08
    outer loop
      vertex 6.78846 19.8538 3.08773
      vertex 6.48936 19.9722 0
      vertex 6.56702 19.9414 3.39252
    endloop
  endfacet
  facet normal 0.481754 0.876306 0
    outer loop
      vertex 11.2524 17.7309 2
      vertex 11.2524 17.7309 0
      vertex 9.1 18.9142 2
    endloop
  endfacet
  facet normal 0.481754 0.876306 -3.42784e-07
    outer loop
      vertex 8.94136 19.0014 0
      vertex 9.1 18.9142 2
      vertex 11.2524 17.7309 0
    endloop
  endfacet
  facet normal 0.481751 0.876308 0
    outer loop
      vertex 9.1 18.9142 2
      vertex 8.94136 19.0014 0
      vertex 8.94136 19.0014 2.00998
    endloop
  endfacet
  facet normal -0.904827 0.42578 0
    outer loop
      vertex -19.5253 7.73061 0
      vertex -18.4024 10.1168 2
      vertex -18.4024 10.1168 0
    endloop
  endfacet
  facet normal -0.904827 0.42578 0
    outer loop
      vertex -18.4024 10.1168 2
      vertex -19.5253 7.73061 0
      vertex -19.5253 7.73061 2
    endloop
  endfacet
  facet normal -0.951057 0.309017 0
    outer loop
      vertex -20.3402 5.22249 0
      vertex -19.5253 7.73061 2
      vertex -19.5253 7.73061 0
    endloop
  endfacet
  facet normal -0.951057 0.309017 0
    outer loop
      vertex -19.5253 7.73061 2
      vertex -20.3402 5.22249 0
      vertex -20.3402 5.22249 2
    endloop
  endfacet
  facet normal -0.125333 0.992115 0
    outer loop
      vertex -1.3186 20.9586 0
      vertex -3.93501 20.628 34
      vertex -1.3186 20.9586 34
    endloop
  endfacet
  facet normal -0.125333 0.992115 0
    outer loop
      vertex -3.93501 20.628 34
      vertex -1.3186 20.9586 0
      vertex -3.93501 20.628 0
    endloop
  endfacet
  facet normal -0.770513 -0.637424 0
    outer loop
      vertex -15.3083 -14.3755 0
      vertex -16.9894 -12.3435 2.00592
      vertex -16.9894 -12.3435 0
    endloop
  endfacet
  facet normal -0.770513 -0.637424 0
    outer loop
      vertex -16.9894 -12.3435 2.00592
      vertex -15.3083 -14.3755 0
      vertex -15.3083 -14.3755 2.00592
    endloop
  endfacet
  facet normal 0.368125 -0.929776 0
    outer loop
      vertex 6.48936 -19.9722 0
      vertex 8.94136 -19.0014 2.00592
      vertex 6.48936 -19.9722 2.00592
    endloop
  endfacet
  facet normal 0.368125 -0.929776 0
    outer loop
      vertex 8.94136 -19.0014 2.00592
      vertex 6.48936 -19.9722 0
      vertex 8.94136 -19.0014 0
    endloop
  endfacet
  facet normal 0.951057 0.309017 0
    outer loop
      vertex 20.3402 5.22249 2
      vertex 19.5253 7.73061 0
      vertex 19.5253 7.73061 2
    endloop
  endfacet
  facet normal 0.951057 0.309017 0
    outer loop
      vertex 19.5253 7.73061 0
      vertex 20.3402 5.22249 2
      vertex 20.3402 5.22249 0
    endloop
  endfacet
  facet normal 0.770513 0.637424 0
    outer loop
      vertex 16.9894 12.3435 2
      vertex 15.3083 14.3755 0
      vertex 15.3083 14.3755 2
    endloop
  endfacet
  facet normal 0.770513 0.637424 0
    outer loop
      vertex 15.3083 14.3755 0
      vertex 16.9894 12.3435 2
      vertex 16.9894 12.3435 0
    endloop
  endfacet
  facet normal 0.844328 0.535827 0
    outer loop
      vertex 18.4024 10.1168 2
      vertex 16.9894 12.3435 0
      vertex 16.9894 12.3435 2
    endloop
  endfacet
  facet normal 0.844328 0.535827 0
    outer loop
      vertex 16.9894 12.3435 0
      vertex 18.4024 10.1168 2
      vertex 18.4024 10.1168 0
    endloop
  endfacet
  facet normal 0.24869 0.968583 -0
    outer loop
      vertex 6.10592 20.0706 4.81163
      vertex 3.93501 20.628 34
      vertex 6.10592 20.0706 34
    endloop
  endfacet
  facet normal 0.24869 0.968583 0
    outer loop
      vertex 3.93501 20.628 0
      vertex 6.48936 19.9722 3.53378
      vertex 6.48936 19.9722 0
    endloop
  endfacet
  facet normal 0.248683 0.968585 5.28404e-06
    outer loop
      vertex 6.48936 19.9722 3.53378
      vertex 3.93501 20.628 0
      vertex 6.38552 19.9988 3.72266
    endloop
  endfacet
  facet normal 0.248693 0.968582 -1.35779e-06
    outer loop
      vertex 6.38552 19.9988 3.72266
      vertex 3.93501 20.628 0
      vertex 6.24683 20.0345 4.07295
    endloop
  endfacet
  facet normal 0.248689 0.968583 9.86686e-07
    outer loop
      vertex 6.24683 20.0345 4.07295
      vertex 3.93501 20.628 0
      vertex 6.15314 20.0585 4.43786
    endloop
  endfacet
  facet normal 0.24869 0.968583 0
    outer loop
      vertex 6.10592 20.0706 4.81163
      vertex 3.93501 20.628 0
      vertex 3.93501 20.628 34
    endloop
  endfacet
  facet normal 0.248696 0.968582 -2.84335e-06
    outer loop
      vertex 6.15314 20.0585 4.43786
      vertex 3.93501 20.628 0
      vertex 6.10592 20.0706 4.81163
    endloop
  endfacet
  facet normal 0.125333 0.992115 -0
    outer loop
      vertex 3.93501 20.628 0
      vertex 1.3186 20.9586 34
      vertex 3.93501 20.628 34
    endloop
  endfacet
  facet normal 0.125333 0.992115 0
    outer loop
      vertex 1.3186 20.9586 34
      vertex 3.93501 20.628 0
      vertex 1.3186 20.9586 0
    endloop
  endfacet
  facet normal 0.587785 0.809017 -0
    outer loop
      vertex 13.3859 16.1808 0
      vertex 11.2524 17.7309 2
      vertex 13.3859 16.1808 2
    endloop
  endfacet
  facet normal 0.587785 0.809017 0
    outer loop
      vertex 11.2524 17.7309 2
      vertex 13.3859 16.1808 0
      vertex 11.2524 17.7309 0
    endloop
  endfacet
  facet normal -0.844328 0.535827 0
    outer loop
      vertex -18.4024 10.1168 0
      vertex -16.9894 12.3435 2
      vertex -16.9894 12.3435 0
    endloop
  endfacet
  facet normal -0.844328 0.535827 0
    outer loop
      vertex -16.9894 12.3435 2
      vertex -18.4024 10.1168 0
      vertex -18.4024 10.1168 2
    endloop
  endfacet
  facet normal -0.770513 0.637424 0
    outer loop
      vertex -16.9894 12.3435 0
      vertex -15.3083 14.3755 2
      vertex -15.3083 14.3755 0
    endloop
  endfacet
  facet normal -0.770513 0.637424 0
    outer loop
      vertex -15.3083 14.3755 2
      vertex -16.9894 12.3435 0
      vertex -16.9894 12.3435 2
    endloop
  endfacet
  facet normal -0.982287 0.187381 0
    outer loop
      vertex -20.8344 2.632 0
      vertex -20.3402 5.22249 2
      vertex -20.3402 5.22249 0
    endloop
  endfacet
  facet normal -0.982287 0.187381 0
    outer loop
      vertex -20.3402 5.22249 2
      vertex -20.8344 2.632 0
      vertex -20.8344 2.632 2
    endloop
  endfacet
  facet normal 0 0 1
    outer loop
      vertex 3.93501 20.628 34
      vertex 6.10592 16.5 34
      vertex 6.10592 20.0706 34
    endloop
  endfacet
  facet normal 0 0 1
    outer loop
      vertex 1.3186 20.9586 34
      vertex 6.10592 16.5 34
      vertex 3.93501 20.628 34
    endloop
  endfacet
  facet normal 0 0 1
    outer loop
      vertex -6.00592 16.5 34
      vertex 1.3186 20.9586 34
      vertex -1.3186 20.9586 34
    endloop
  endfacet
  facet normal 0 0 1
    outer loop
      vertex -6.00592 16.5 34
      vertex -1.3186 20.9586 34
      vertex -3.93501 20.628 34
    endloop
  endfacet
  facet normal 0 0 1
    outer loop
      vertex -6.00592 16.5 34
      vertex -3.93501 20.628 34
      vertex -6.00592 20.0963 34
    endloop
  endfacet
  facet normal 0 0 1
    outer loop
      vertex 1.3186 20.9586 34
      vertex -6.00592 16.5 34
      vertex 6.10592 16.5 34
    endloop
  endfacet
  facet normal -0.481763 0.876301 0
    outer loop
      vertex -8.94136 19.0014 0
      vertex -9 18.9691 2
      vertex -8.94136 19.0014 2.00369
    endloop
  endfacet
  facet normal -0.481754 0.876306 3.57163e-07
    outer loop
      vertex -11.2524 17.7309 0
      vertex -9 18.9691 2
      vertex -8.94136 19.0014 0
    endloop
  endfacet
  facet normal -0.481754 0.876307 0
    outer loop
      vertex -9 18.9691 2
      vertex -11.2524 17.7309 0
      vertex -11.2524 17.7309 2
    endloop
  endfacet
  facet normal -0.587785 0.809017 0
    outer loop
      vertex -11.2524 17.7309 0
      vertex -13.3859 16.1808 2
      vertex -11.2524 17.7309 2
    endloop
  endfacet
  facet normal -0.587785 0.809017 0
    outer loop
      vertex -13.3859 16.1808 2
      vertex -11.2524 17.7309 0
      vertex -13.3859 16.1808 0
    endloop
  endfacet
  facet normal -0.24869 0.968583 0
    outer loop
      vertex -3.93501 20.628 34
      vertex -6.00592 20.0963 4.81163
      vertex -6.00592 20.0963 34
    endloop
  endfacet
  facet normal -0.24869 0.968583 0
    outer loop
      vertex -3.93501 20.628 0
      vertex -6.00592 20.0963 4.81163
      vertex -3.93501 20.628 34
    endloop
  endfacet
  facet normal -0.248688 0.968584 1.03861e-06
    outer loop
      vertex -3.93501 20.628 0
      vertex -6.05314 20.0842 4.43786
      vertex -6.00592 20.0963 4.81163
    endloop
  endfacet
  facet normal -0.248695 0.968582 -2.40945e-06
    outer loop
      vertex -3.93501 20.628 0
      vertex -6.14683 20.0601 4.07295
      vertex -6.05314 20.0842 4.43786
    endloop
  endfacet
  facet normal -0.248688 0.968584 1.78948e-06
    outer loop
      vertex -3.93501 20.628 0
      vertex -6.28552 20.0245 3.72266
      vertex -6.14683 20.0601 4.07295
    endloop
  endfacet
  facet normal -0.248689 0.968583 5.98548e-07
    outer loop
      vertex -3.93501 20.628 0
      vertex -6.46702 19.9779 3.39252
      vertex -6.28552 20.0245 3.72266
    endloop
  endfacet
  facet normal -0.248685 0.968584 4.05088e-06
    outer loop
      vertex -3.93501 20.628 0
      vertex -6.48936 19.9722 3.36177
      vertex -6.46702 19.9779 3.39252
    endloop
  endfacet
  facet normal -0.24869 0.968583 0
    outer loop
      vertex -6.48936 19.9722 3.36177
      vertex -3.93501 20.628 0
      vertex -6.48936 19.9722 0
    endloop
  endfacet
  facet normal 0.998027 -0.0627912 0
    outer loop
      vertex 20.9623 -0.6 2.00592
      vertex 20.8344 -2.632 2.00592
      vertex 20.9623 -0.6 2
    endloop
  endfacet
  facet normal 0.998027 -0.0627897 0
    outer loop
      vertex 20.9623 -0.6 2
      vertex 21 0 0
      vertex 21 0 2
    endloop
  endfacet
  facet normal 0.998027 -0.0627912 0
    outer loop
      vertex 20.8344 -2.632 0
      vertex 20.9623 -0.6 2
      vertex 20.8344 -2.632 2.00592
    endloop
  endfacet
  facet normal 0.998027 -0.0627909 -3.42565e-07
    outer loop
      vertex 20.9623 -0.6 2
      vertex 20.8344 -2.632 0
      vertex 21 0 0
    endloop
  endfacet
  facet normal 0.684547 -0.728968 0
    outer loop
      vertex 13.3859 -16.1808 0
      vertex 15.3083 -14.3755 2.00592
      vertex 13.3859 -16.1808 2.00592
    endloop
  endfacet
  facet normal 0.684547 -0.728968 0
    outer loop
      vertex 15.3083 -14.3755 2.00592
      vertex 13.3859 -16.1808 0
      vertex 15.3083 -14.3755 0
    endloop
  endfacet
  facet normal 0.982287 -0.187381 0
    outer loop
      vertex 20.3402 -5.22249 2.00592
      vertex 20.8344 -2.632 0
      vertex 20.8344 -2.632 2.00592
    endloop
  endfacet
  facet normal 0.982287 -0.187381 0
    outer loop
      vertex 20.8344 -2.632 0
      vertex 20.3402 -5.22249 2.00592
      vertex 20.3402 -5.22249 0
    endloop
  endfacet
  facet normal 0 0 -1
    outer loop
      vertex 20.8344 -2.632 0
      vertex 20.8344 2.632 0
      vertex 21 0 0
    endloop
  endfacet
  facet normal 0 0 -1
    outer loop
      vertex 20.3402 -5.22249 0
      vertex 20.8344 2.632 0
      vertex 20.8344 -2.632 0
    endloop
  endfacet
  facet normal 0 0 -1
    outer loop
      vertex 20.3402 -5.22249 0
      vertex 20.3402 5.22249 0
      vertex 20.8344 2.632 0
    endloop
  endfacet
  facet normal 0 0 -1
    outer loop
      vertex 19.5253 -7.73061 0
      vertex 20.3402 5.22249 0
      vertex 20.3402 -5.22249 0
    endloop
  endfacet
  facet normal 0 0 -1
    outer loop
      vertex 19.5253 -7.73061 0
      vertex 19.5253 7.73061 0
      vertex 20.3402 5.22249 0
    endloop
  endfacet
  facet normal 0 0 -1
    outer loop
      vertex 18.4024 -10.1168 0
      vertex 19.5253 7.73061 0
      vertex 19.5253 -7.73061 0
    endloop
  endfacet
  facet normal 0 0 -1
    outer loop
      vertex 18.4024 -10.1168 0
      vertex 18.4024 10.1168 0
      vertex 19.5253 7.73061 0
    endloop
  endfacet
  facet normal 0 0 -1
    outer loop
      vertex 16.9894 -12.3435 0
      vertex 18.4024 10.1168 0
      vertex 18.4024 -10.1168 0
    endloop
  endfacet
  facet normal 0 0 -1
    outer loop
      vertex 16.9894 -12.3435 0
      vertex 16.9894 12.3435 0
      vertex 18.4024 10.1168 0
    endloop
  endfacet
  facet normal 0 0 -1
    outer loop
      vertex 15.3083 -14.3755 0
      vertex 16.9894 12.3435 0
      vertex 16.9894 -12.3435 0
    endloop
  endfacet
  facet normal 0 0 -1
    outer loop
      vertex 15.3083 -14.3755 0
      vertex 15.3083 14.3755 0
      vertex 16.9894 12.3435 0
    endloop
  endfacet
  facet normal 0 0 -1
    outer loop
      vertex 13.3859 -16.1808 0
      vertex 15.3083 14.3755 0
      vertex 15.3083 -14.3755 0
    endloop
  endfacet
  facet normal 0 0 -1
    outer loop
      vertex 13.3859 -16.1808 0
      vertex 13.3859 16.1808 0
      vertex 15.3083 14.3755 0
    endloop
  endfacet
  facet normal 0 0 -1
    outer loop
      vertex 11.2524 -17.7309 0
      vertex 13.3859 16.1808 0
      vertex 13.3859 -16.1808 0
    endloop
  endfacet
  facet normal 0 0 -1
    outer loop
      vertex 11.2524 -17.7309 0
      vertex 11.2524 17.7309 0
      vertex 13.3859 16.1808 0
    endloop
  endfacet
  facet normal 0 0 -1
    outer loop
      vertex 8.94136 -19.0014 0
      vertex 11.2524 17.7309 0
      vertex 11.2524 -17.7309 0
    endloop
  endfacet
  facet normal 0 0 -1
    outer loop
      vertex 8.94136 -19.0014 0
      vertex 8.94136 19.0014 0
      vertex 11.2524 17.7309 0
    endloop
  endfacet
  facet normal 0 0 -1
    outer loop
      vertex 6.48936 -19.9722 0
      vertex 8.94136 19.0014 0
      vertex 8.94136 -19.0014 0
    endloop
  endfacet
  facet normal 0 0 -1
    outer loop
      vertex 6.48936 -19.9722 0
      vertex 6.48936 19.9722 0
      vertex 8.94136 19.0014 0
    endloop
  endfacet
  facet normal 0 0 -1
    outer loop
      vertex 3.93501 -20.628 0
      vertex 6.48936 19.9722 0
      vertex 6.48936 -19.9722 0
    endloop
  endfacet
  facet normal 0 0 -1
    outer loop
      vertex 3.93501 -20.628 0
      vertex 3.93501 20.628 0
      vertex 6.48936 19.9722 0
    endloop
  endfacet
  facet normal 0 0 -1
    outer loop
      vertex 1.3186 -20.9586 0
      vertex 3.93501 20.628 0
      vertex 3.93501 -20.628 0
    endloop
  endfacet
  facet normal 0 0 -1
    outer loop
      vertex 1.3186 -20.9586 0
      vertex 1.3186 20.9586 0
      vertex 3.93501 20.628 0
    endloop
  endfacet
  facet normal 0 0 -1
    outer loop
      vertex -1.3186 -20.9586 0
      vertex 1.3186 20.9586 0
      vertex 1.3186 -20.9586 0
    endloop
  endfacet
  facet normal 0 0 -1
    outer loop
      vertex -1.3186 -20.9586 0
      vertex -1.3186 20.9586 0
      vertex 1.3186 20.9586 0
    endloop
  endfacet
  facet normal 0 0 -1
    outer loop
      vertex -3.93501 -20.628 0
      vertex -1.3186 20.9586 0
      vertex -1.3186 -20.9586 0
    endloop
  endfacet
  facet normal 0 0 -1
    outer loop
      vertex -3.93501 -20.628 0
      vertex -3.93501 20.628 0
      vertex -1.3186 20.9586 0
    endloop
  endfacet
  facet normal 0 0 -1
    outer loop
      vertex -6.48936 -19.9722 0
      vertex -3.93501 20.628 0
      vertex -3.93501 -20.628 0
    endloop
  endfacet
  facet normal 0 0 -1
    outer loop
      vertex -6.48936 -19.9722 0
      vertex -6.48936 19.9722 0
      vertex -3.93501 20.628 0
    endloop
  endfacet
  facet normal 0 0 -1
    outer loop
      vertex -8.94136 -19.0014 0
      vertex -6.48936 19.9722 0
      vertex -6.48936 -19.9722 0
    endloop
  endfacet
  facet normal 0 0 -1
    outer loop
      vertex -8.94136 -19.0014 0
      vertex -8.94136 19.0014 0
      vertex -6.48936 19.9722 0
    endloop
  endfacet
  facet normal 0 0 -1
    outer loop
      vertex -11.2524 -17.7309 0
      vertex -8.94136 19.0014 0
      vertex -8.94136 -19.0014 0
    endloop
  endfacet
  facet normal 0 0 -1
    outer loop
      vertex -11.2524 -17.7309 0
      vertex -11.2524 17.7309 0
      vertex -8.94136 19.0014 0
    endloop
  endfacet
  facet normal 0 0 -1
    outer loop
      vertex -13.3859 -16.1808 0
      vertex -11.2524 17.7309 0
      vertex -11.2524 -17.7309 0
    endloop
  endfacet
  facet normal 0 0 -1
    outer loop
      vertex -13.3859 -16.1808 0
      vertex -13.3859 16.1808 0
      vertex -11.2524 17.7309 0
    endloop
  endfacet
  facet normal 0 0 -1
    outer loop
      vertex -15.3083 -14.3755 0
      vertex -13.3859 16.1808 0
      vertex -13.3859 -16.1808 0
    endloop
  endfacet
  facet normal 0 0 -1
    outer loop
      vertex -15.3083 -14.3755 0
      vertex -15.3083 14.3755 0
      vertex -13.3859 16.1808 0
    endloop
  endfacet
  facet normal 0 0 -1
    outer loop
      vertex -16.9894 -12.3435 0
      vertex -15.3083 14.3755 0
      vertex -15.3083 -14.3755 0
    endloop
  endfacet
  facet normal 0 0 -1
    outer loop
      vertex -16.9894 -12.3435 0
      vertex -16.9894 12.3435 0
      vertex -15.3083 14.3755 0
    endloop
  endfacet
  facet normal 0 0 -1
    outer loop
      vertex -18.4024 -10.1168 0
      vertex -16.9894 12.3435 0
      vertex -16.9894 -12.3435 0
    endloop
  endfacet
  facet normal 0 0 -1
    outer loop
      vertex -18.4024 -10.1168 0
      vertex -18.4024 10.1168 0
      vertex -16.9894 12.3435 0
    endloop
  endfacet
  facet normal 0 0 -1
    outer loop
      vertex -19.5253 -7.73061 0
      vertex -18.4024 10.1168 0
      vertex -18.4024 -10.1168 0
    endloop
  endfacet
  facet normal 0 0 -1
    outer loop
      vertex -19.5253 -7.73061 0
      vertex -19.5253 7.73061 0
      vertex -18.4024 10.1168 0
    endloop
  endfacet
  facet normal 0 0 -1
    outer loop
      vertex -20.3402 -5.22249 0
      vertex -19.5253 7.73061 0
      vertex -19.5253 -7.73061 0
    endloop
  endfacet
  facet normal 0 0 -1
    outer loop
      vertex -20.3402 -5.22249 0
      vertex -20.3402 5.22249 0
      vertex -19.5253 7.73061 0
    endloop
  endfacet
  facet normal 0 0 -1
    outer loop
      vertex -20.8344 -2.632 0
      vertex -20.3402 5.22249 0
      vertex -20.3402 -5.22249 0
    endloop
  endfacet
  facet normal 0 0 -1
    outer loop
      vertex -20.8344 -2.632 0
      vertex -20.8344 2.632 0
      vertex -20.3402 5.22249 0
    endloop
  endfacet
  facet normal 0 -0 -1
    outer loop
      vertex -20.8344 2.632 0
      vertex -20.8344 -2.632 0
      vertex -21 0 0
    endloop
  endfacet
  facet normal 0.904827 -0.42578 0
    outer loop
      vertex 18.4024 -10.1168 2.00592
      vertex 19.5253 -7.73061 0
      vertex 19.5253 -7.73061 2.00592
    endloop
  endfacet
  facet normal 0.904827 -0.42578 0
    outer loop
      vertex 19.5253 -7.73061 0
      vertex 18.4024 -10.1168 2.00592
      vertex 18.4024 -10.1168 0
    endloop
  endfacet
  facet normal 0.770513 -0.637424 0
    outer loop
      vertex 15.3083 -14.3755 2.00592
      vertex 16.9894 -12.3435 0
      vertex 16.9894 -12.3435 2.00592
    endloop
  endfacet
  facet normal 0.770513 -0.637424 0
    outer loop
      vertex 16.9894 -12.3435 0
      vertex 15.3083 -14.3755 2.00592
      vertex 15.3083 -14.3755 0
    endloop
  endfacet
  facet normal -0.684547 -0.728968 0
    outer loop
      vertex -15.3083 -14.3755 0
      vertex -13.3859 -16.1808 2.00592
      vertex -15.3083 -14.3755 2.00592
    endloop
  endfacet
  facet normal -0.684547 -0.728968 -0
    outer loop
      vertex -13.3859 -16.1808 2.00592
      vertex -15.3083 -14.3755 0
      vertex -13.3859 -16.1808 0
    endloop
  endfacet
  facet normal -0.844328 -0.535827 0
    outer loop
      vertex -16.9894 -12.3435 0
      vertex -18.4024 -10.1168 2.00592
      vertex -18.4024 -10.1168 0
    endloop
  endfacet
  facet normal -0.844328 -0.535827 0
    outer loop
      vertex -18.4024 -10.1168 2.00592
      vertex -16.9894 -12.3435 0
      vertex -16.9894 -12.3435 2.00592
    endloop
  endfacet
  facet normal -0.951057 -0.309017 0
    outer loop
      vertex -19.5253 -7.73061 0
      vertex -20.3402 -5.22249 2.00592
      vertex -20.3402 -5.22249 0
    endloop
  endfacet
  facet normal -0.951057 -0.309017 0
    outer loop
      vertex -20.3402 -5.22249 2.00592
      vertex -19.5253 -7.73061 0
      vertex -19.5253 -7.73061 2.00592
    endloop
  endfacet
  facet normal 0.24869 -0.968583 0
    outer loop
      vertex 3.93501 -20.628 0
      vertex 6.48936 -19.9722 2.00592
      vertex 3.93501 -20.628 2.00592
    endloop
  endfacet
  facet normal 0.24869 -0.968583 0
    outer loop
      vertex 6.48936 -19.9722 2.00592
      vertex 3.93501 -20.628 0
      vertex 6.48936 -19.9722 0
    endloop
  endfacet
  facet normal 0.125333 -0.992115 0
    outer loop
      vertex 1.3186 -20.9586 0
      vertex 3.93501 -20.628 2.00592
      vertex 1.3186 -20.9586 2.00592
    endloop
  endfacet
  facet normal 0.125333 -0.992115 0
    outer loop
      vertex 3.93501 -20.628 2.00592
      vertex 1.3186 -20.9586 0
      vertex 3.93501 -20.628 0
    endloop
  endfacet
  facet normal 0.587785 -0.809017 0
    outer loop
      vertex 11.2524 -17.7309 0
      vertex 13.3859 -16.1808 2.00592
      vertex 11.2524 -17.7309 2.00592
    endloop
  endfacet
  facet normal 0.587785 -0.809017 0
    outer loop
      vertex 13.3859 -16.1808 2.00592
      vertex 11.2524 -17.7309 0
      vertex 13.3859 -16.1808 0
    endloop
  endfacet
  facet normal 0.481754 -0.876306 0
    outer loop
      vertex 8.94136 -19.0014 0
      vertex 11.2524 -17.7309 2.00592
      vertex 8.94136 -19.0014 2.00592
    endloop
  endfacet
  facet normal 0.481754 -0.876306 0
    outer loop
      vertex 11.2524 -17.7309 2.00592
      vertex 8.94136 -19.0014 0
      vertex 11.2524 -17.7309 0
    endloop
  endfacet
  facet normal 0.951057 -0.309017 0
    outer loop
      vertex 19.5253 -7.73061 2.00592
      vertex 20.3402 -5.22249 0
      vertex 20.3402 -5.22249 2.00592
    endloop
  endfacet
  facet normal 0.951057 -0.309017 0
    outer loop
      vertex 20.3402 -5.22249 0
      vertex 19.5253 -7.73061 2.00592
      vertex 19.5253 -7.73061 0
    endloop
  endfacet
  facet normal -0.125333 -0.992115 0
    outer loop
      vertex -3.93501 -20.628 0
      vertex -1.3186 -20.9586 2.00592
      vertex -3.93501 -20.628 2.00592
    endloop
  endfacet
  facet normal -0.125333 -0.992115 -0
    outer loop
      vertex -1.3186 -20.9586 2.00592
      vertex -3.93501 -20.628 0
      vertex -1.3186 -20.9586 0
    endloop
  endfacet
  facet normal -0.587785 -0.809017 0
    outer loop
      vertex -13.3859 -16.1808 0
      vertex -11.2524 -17.7309 2.00592
      vertex -13.3859 -16.1808 2.00592
    endloop
  endfacet
  facet normal -0.587785 -0.809017 -0
    outer loop
      vertex -11.2524 -17.7309 2.00592
      vertex -13.3859 -16.1808 0
      vertex -11.2524 -17.7309 0
    endloop
  endfacet
  facet normal -0.368125 -0.929776 0
    outer loop
      vertex -8.94136 -19.0014 0
      vertex -6.48936 -19.9722 2.00592
      vertex -8.94136 -19.0014 2.00592
    endloop
  endfacet
  facet normal -0.368125 -0.929776 -0
    outer loop
      vertex -6.48936 -19.9722 2.00592
      vertex -8.94136 -19.0014 0
      vertex -6.48936 -19.9722 0
    endloop
  endfacet
  facet normal -0.481754 -0.876306 0
    outer loop
      vertex -11.2524 -17.7309 0
      vertex -8.94136 -19.0014 2.00592
      vertex -11.2524 -17.7309 2.00592
    endloop
  endfacet
  facet normal -0.481754 -0.876306 -0
    outer loop
      vertex -8.94136 -19.0014 2.00592
      vertex -11.2524 -17.7309 0
      vertex -8.94136 -19.0014 0
    endloop
  endfacet
  facet normal -0.904827 -0.42578 0
    outer loop
      vertex -18.4024 -10.1168 0
      vertex -19.5253 -7.73061 2.00592
      vertex -19.5253 -7.73061 0
    endloop
  endfacet
  facet normal -0.904827 -0.42578 0
    outer loop
      vertex -19.5253 -7.73061 2.00592
      vertex -18.4024 -10.1168 0
      vertex -18.4024 -10.1168 2.00592
    endloop
  endfacet
  facet normal -0.982287 -0.187381 0
    outer loop
      vertex -20.3402 -5.22249 0
      vertex -20.8344 -2.632 2.00592
      vertex -20.8344 -2.632 0
    endloop
  endfacet
  facet normal -0.982287 -0.187381 0
    outer loop
      vertex -20.8344 -2.632 2.00592
      vertex -20.3402 -5.22249 0
      vertex -20.3402 -5.22249 2.00592
    endloop
  endfacet
  facet normal -0.998027 -0.0627897 0
    outer loop
      vertex -21 0 0
      vertex -20.9623 -0.6 2
      vertex -21 0 2
    endloop
  endfacet
  facet normal -0.998027 -0.0627909 -3.42565e-07
    outer loop
      vertex -20.8344 -2.632 0
      vertex -20.9623 -0.6 2
      vertex -21 0 0
    endloop
  endfacet
  facet normal -0.998027 -0.0627912 -0
    outer loop
      vertex -20.8344 -2.632 2.00592
      vertex -20.9623 -0.6 2
      vertex -20.8344 -2.632 0
    endloop
  endfacet
  facet normal -0.998027 -0.0627912 0
    outer loop
      vertex -20.9623 -0.6 2
      vertex -20.8344 -2.632 2.00592
      vertex -20.9623 -0.6 2.00592
    endloop
  endfacet
  facet normal -0.24869 -0.968583 0
    outer loop
      vertex -6.48936 -19.9722 0
      vertex -3.93501 -20.628 2.00592
      vertex -6.48936 -19.9722 2.00592
    endloop
  endfacet
  facet normal -0.24869 -0.968583 -0
    outer loop
      vertex -3.93501 -20.628 2.00592
      vertex -6.48936 -19.9722 0
      vertex -3.93501 -20.628 0
    endloop
  endfacet
  facet normal 1 -0 0
    outer loop
      vertex -3.5 16.5 33
      vertex -3.5 17.5 13
      vertex -3.5 17.5 33
    endloop
  endfacet
  facet normal 1 0 0
    outer loop
      vertex -3.5 17.5 13
      vertex -3.5 16.5 33
      vertex -3.5 16.5 13
    endloop
  endfacet
  facet normal 0 0 -1
    outer loop
      vertex -3.5 16.5 33
      vertex 3.5 17.5 33
      vertex 3.5 16.5 33
    endloop
  endfacet
  facet normal -0 0 -1
    outer loop
      vertex 3.5 17.5 33
      vertex -3.5 16.5 33
      vertex -3.5 17.5 33
    endloop
  endfacet
  facet normal -1 0 0
    outer loop
      vertex 3.5 16.5 13
      vertex 3.5 17.5 33
      vertex 3.5 17.5 13
    endloop
  endfacet
  facet normal -1 -0 0
    outer loop
      vertex 3.5 17.5 33
      vertex 3.5 16.5 13
      vertex 3.5 16.5 33
    endloop
  endfacet
  facet normal -0 0 1
    outer loop
      vertex -3.5 17.5 13
      vertex 3.5 16.5 13
      vertex 3.5 17.5 13
    endloop
  endfacet
  facet normal 0 0 1
    outer loop
      vertex 3.5 16.5 13
      vertex -3.5 17.5 13
      vertex -3.5 16.5 13
    endloop
  endfacet
  facet normal 0 -1 0
    outer loop
      vertex -3.5 17.5 13
      vertex 3.5 17.5 33
      vertex -3.5 17.5 33
    endloop
  endfacet
  facet normal 0 -1 -0
    outer loop
      vertex 3.5 17.5 33
      vertex -3.5 17.5 13
      vertex 3.5 17.5 13
    endloop
  endfacet
endsolid OpenSCAD_Model
